<svg id="Capa_1" enable-background="new 0 0 512 512" height="512" viewBox="0 0 512 512" width="512" xmlns="http://www.w3.org/2000/svg" xmlns:xlink="http://www.w3.org/1999/xlink"><linearGradient id="SVGID_1_" gradientUnits="userSpaceOnUse" x1="256" x2="256" y1="482" y2="30"><stop offset="0" stop-color="#ffc2cc"/><stop offset="1" stop-color="#fff2f4"/></linearGradient><linearGradient id="SVGID_2_" gradientUnits="userSpaceOnUse" x1="256" x2="256" y1="512" y2="0"><stop offset="0" stop-color="#fd3a84"/><stop offset="1" stop-color="#ffa68d"/></linearGradient><g><path d="m256 482c-60.478 0-117.265-23.485-159.898-66.128-42.626-42.637-66.102-99.414-66.102-159.872 0-60.482 23.487-117.271 66.137-159.904 42.636-42.623 99.411-66.096 159.863-66.096 60.478 0 117.265 23.485 159.898 66.128 42.626 42.637 66.102 99.414 66.102 159.872 0 60.398-23.484 117.156-66.126 159.817-42.659 42.679-99.436 66.183-159.874 66.183z" fill="url(#SVGID_1_)"/><path d="m256 0c-141.528 0-256 114.344-256 256 0 141.553 114.364 256 256 256 68.454 0 132.767-26.626 181.092-74.974 48.305-48.328 74.908-112.617 74.908-181.026 0-141.553-114.364-256-256-256zm-166 256c0-28.933 7.336-56.723 21.118-81.247l226.13 226.131c-24.519 13.781-52.309 21.116-81.248 21.116-91.812 0-166-74.104-166-166zm310.881 81.247-226.13-226.131c24.52-13.78 52.31-21.116 81.249-21.116 91.812 0 166 74.104 166 166 0 28.934-7.336 56.724-21.119 81.247z" fill="url(#SVGID_2_)"/></g></svg>