<?xml version="1.0" encoding="iso-8859-1"?>
<!-- Generator: Adobe Illustrator 19.0.0, SVG Export Plug-In . SVG Version: 6.00 Build 0)  -->
<svg version="1.1" id="Capa_1" xmlns="http://www.w3.org/2000/svg" xmlns:xlink="http://www.w3.org/1999/xlink" x="0px" y="0px"
	 viewBox="0 0 512 512" style="enable-background:new 0 0 512 512;" xml:space="preserve">
<linearGradient id="SVGID_1_" gradientUnits="userSpaceOnUse" x1="256" y1="486" x2="256" y2="30" gradientTransform="matrix(1 0 0 -1 0 514)">
	<stop  offset="0" style="stop-color:#2AF598"/>
	<stop  offset="1" style="stop-color:#009EFD"/>
</linearGradient>
<path style="fill:url(#SVGID_1_);" d="M452,108H316V88c0-33.084-26.916-60-60-60s-60,26.916-60,60v20H60c-33.084,0-60,26.916-60,60
	v256c0,33.084,26.916,60,60,60h392c33.084,0,60-26.916,60-60V168C512,134.916,485.084,108,452,108z M236,88c0-11.028,8.972-20,20-20
	c11.028,0,20,8.972,20,20v60h-40V88z M472,424c0,11.028-8.972,20-20,20H60c-11.028,0-20-8.972-20-20V168c0-11.028,8.972-20,20-20
	h136v40h120v-40h136c11.028,0,20,8.972,20,20V424z M312,320.122h80v40h-80V320.122z M312,250.122h120v40H312V250.122z
	 M230.25,319.694c7.385-10.32,11.75-22.942,11.75-36.572c0-34.739-28.262-63-63-63s-63,28.262-63,63
	c0,13.996,4.593,26.936,12.343,37.405C99.391,338.065,80,369.871,80,406.122h40c0-33.084,26.916-60,60-60s60,26.916,60,60h40
	C280,369.287,259.979,337.045,230.25,319.694z M179,260.122c12.682,0,23,10.318,23,23s-10.318,23-23,23s-23-10.317-23-23
	S166.318,260.122,179,260.122z"/>
<g>
</g>
<g>
</g>
<g>
</g>
<g>
</g>
<g>
</g>
<g>
</g>
<g>
</g>
<g>
</g>
<g>
</g>
<g>
</g>
<g>
</g>
<g>
</g>
<g>
</g>
<g>
</g>
<g>
</g>
</svg>
