<?xml version="1.0" encoding="iso-8859-1"?>
<!-- Generator: Adobe Illustrator 19.0.0, SVG Export Plug-In . SVG Version: 6.00 Build 0)  -->
<svg version="1.1" id="Capa_1" xmlns="http://www.w3.org/2000/svg" xmlns:xlink="http://www.w3.org/1999/xlink" x="0px" y="0px"
	 viewBox="0 0 448 448" style="enable-background:new 0 0 448 448;" xml:space="preserve">
<path style="fill:#F4F4F4;" d="M352,336H32c-17.68,0-32-14.32-32-32V96c0-17.68,14.32-32,32-32h320c17.68,0,32,14.32,32,32v208
	C384,321.68,369.68,336,352,336z"/>
<circle style="fill:#676868;" cx="112.003" cy="159.994" r="32"/>
<path style="fill:#5887C5;" d="M176,256H48v-37.6c6.896-6.368,17.776-11.952,31.824-15.472c8.992,6.8,20.032,10.992,32.144,10.992
	s23.168-4.192,32.144-10.976c14.048,3.52,25.008,9.104,31.888,15.472V256z"/>
<g>
	<rect x="224.003" y="159.994" style="fill:#ACACAC;" width="111.904" height="32"/>
	<rect x="224.003" y="223.994" style="fill:#ACACAC;" width="111.904" height="32"/>
</g>
<path style="fill:#499F62;" d="M336,224c-61.856,0-112,50.144-112,112s50.144,112,112,112s112-50.144,112-112S397.856,224,336,224z"
	/>
<polygon style="fill:#FFFFFF;" points="319.024,392.576 262.464,336 285.088,313.376 319.024,347.312 386.912,279.424 
	409.536,302.064 "/>
<path style="fill:#CECCCC;" d="M239.872,48c0-26.496-21.488-48-48-48S144,21.504,144,48v48h95.872V48z M191.872,64.064
	c-8.864,0-16.048-7.184-16.048-16.032S183.008,32,191.872,32s16.048,7.184,16.048,16.032S200.736,64.064,191.872,64.064z"/>
<g>
</g>
<g>
</g>
<g>
</g>
<g>
</g>
<g>
</g>
<g>
</g>
<g>
</g>
<g>
</g>
<g>
</g>
<g>
</g>
<g>
</g>
<g>
</g>
<g>
</g>
<g>
</g>
<g>
</g>
</svg>
