<svg id="Capa_1" enable-background="new 0 0 512 512" height="512" viewBox="0 0 512 512" width="512" xmlns="http://www.w3.org/2000/svg"><g><g><g><path d="m497 265.997h-40c-8.284 0-15-6.716-15-15s6.716-15 15-15h40c8.284 0 15 6.716 15 15s-6.716 15-15 15z" fill="#fff5f5"/></g><g><path d="m457 265.997h40c8.284 0 15-6.716 15-15h-70c0 8.284 6.716 15 15 15z" fill="#e2dff4"/></g><g><path d="m484.141 333.987-34.641-20c-7.174-4.142-9.632-13.316-5.49-20.49s13.316-9.632 20.49-5.49l34.641 20c7.174 4.142 9.632 13.316 5.49 20.49s-13.316 9.632-20.49 5.49z" fill="#e2dff4"/></g><g><path d="m499.141 193.988-34.641 20c-7.174 4.142-16.348 1.684-20.49-5.49s-1.684-16.348 5.49-20.49l34.641-20c7.174-4.142 16.348-1.684 20.49 5.49 4.143 7.174 1.684 16.348-5.49 20.49z" fill="#fff5f5"/></g></g><g><path d="m200 330.997v59.985c0 4.651-2.103 8.96-5.769 11.823-3.666 2.862-8.354 3.858-12.869 2.729l-60-15c-6.689-1.672-11.362-7.656-11.362-14.552v-65.985l-30-7v72.985c0 20.688 14.017 38.639 34.086 43.656l60 15c3.657.914 7.351 1.364 11.015 1.364 9.899 0 19.564-3.283 27.592-9.551 10.999-8.586 17.307-21.515 17.307-35.468v-52.985z" fill="#d5d3ea"/></g><g><path d="m94 325.997h-49c-24.853 0-45-20.147-45-45v-60c0-24.853 20.147-45 45-45h49c8.284 0 15 6.716 15 15v120c0 8.285-6.716 15-15 15z" fill="#ff6326"/></g><g><path d="m0 250.997v30c0 24.853 20.147 45 45 45h49c8.284 0 15-6.716 15-15v-60z" fill="#ff1f3e"/></g><g><path d="m92.857 325.997 267.943 78.15-8-303.966-259.943 75.816z" fill="#fff5f5"/></g><g><path d="m92.857 250.997v75l267.943 78.15-4.031-153.15z" fill="#e2dff4"/></g><g><path d="m410 110.997v280c0 19.33-15.67 35-35 35-19.33 0-35-15.67-35-35v-280c0-19.33 15.67-35 35-35 19.33 0 35 15.67 35 35z" fill="#ff6326"/></g><g><path d="m340 250.997v140c0 19.33 15.67 35 35 35 19.33 0 35-15.67 35-35v-140z" fill="#ff1f3e"/></g><g><path d="m275 295.997h-80c-8.284 0-15-6.716-15-15s6.716-15 15-15h80c8.284 0 15 6.716 15 15s-6.716 15-15 15z" fill="#d5d3ea"/></g><g><path d="m275 235.997h-80c-8.284 0-15-6.716-15-15s6.716-15 15-15h80c8.284 0 15 6.716 15 15s-6.716 15-15 15z" fill="#e2dff4"/></g></g></svg>