<?xml version="1.0" encoding="utf-8"?>
<!-- Generator: Adobe Illustrator 25.2.3, SVG Export Plug-In . SVG Version: 6.00 Build 0)  -->
<svg version="1.1" id="Layer_1" xmlns="http://www.w3.org/2000/svg" xmlns:xlink="http://www.w3.org/1999/xlink" x="0px" y="0px"
	 viewBox="0 0 300 300" style="enable-background:new 0 0 300 300;" xml:space="preserve">
<style type="text/css">
	.st0{opacity:0.53;}
	.st1{opacity:0.56;}
	.st2{fill:#DBEAF8;}
	.st3{fill:#BAD3EA;}
	.st4{opacity:0.39;fill:#FFFFFF;enable-background:new    ;}
	.st5{fill:#7DABCB;}
	.st6{opacity:0.6;fill:#EDE0A0;enable-background:new    ;}
	.st7{opacity:0.2;fill:#104A74;enable-background:new    ;}
	.st8{fill:#A2C6E4;}
	.st9{opacity:0.51;}
	.st10{opacity:0.54;}
	.st11{opacity:0.64;fill:#C8D1E0;enable-background:new    ;}
	.st12{fill-rule:evenodd;clip-rule:evenodd;fill:#2C3384;}
	.st13{fill-rule:evenodd;clip-rule:evenodd;fill:#0B0C14;}
	.st14{fill-rule:evenodd;clip-rule:evenodd;fill:#141A33;}
	.st15{fill-rule:evenodd;clip-rule:evenodd;fill:#0F1222;}
	.st16{fill-rule:evenodd;clip-rule:evenodd;fill:#6298B6;}
	.st17{fill-rule:evenodd;clip-rule:evenodd;fill:#90BAD8;}
	.st18{fill-rule:evenodd;clip-rule:evenodd;fill:#74A5C6;}
	.st19{fill-rule:evenodd;clip-rule:evenodd;fill:#A2C6E4;}
	.st20{fill-rule:evenodd;clip-rule:evenodd;fill:#404255;}
	.st21{fill:#F36F61;}
	.st22{fill:#E45049;}
	.st23{opacity:0.64;fill:#E45049;enable-background:new    ;}
	.st24{fill:#CD2027;}
	.st25{fill:#F47B68;}
	.st26{fill-rule:evenodd;clip-rule:evenodd;fill:#E45049;}
	.st27{fill:#2A3275;}
	.st28{fill:#F2695C;}
	.st29{opacity:0.64;fill-rule:evenodd;clip-rule:evenodd;fill:#E45049;enable-background:new    ;}
	.st30{fill:#D34140;}
	.st31{fill:#272F69;}
	.st32{fill:#FCB017;}
	.st33{fill:#F8991D;}
	.st34{fill:#EC8223;}
	.st35{fill:#2D327F;}
	.st36{fill:#DA9327;}
	.st37{fill:#4468B1;}
	.st38{fill-rule:evenodd;clip-rule:evenodd;fill:#335EAC;}
	.st39{fill-rule:evenodd;clip-rule:evenodd;fill:#1C54A5;}
	.st40{fill:#4551A3;}
	.st41{fill:#1E2255;}
	.st42{fill:#1A1F4E;}
	.st43{fill:#ED462D;}
	.st44{fill:#D22026;}
	.st45{fill:#292E6F;}
	.st46{fill:#FFFFFF;}
	.st47{fill:#4EB966;}
	.st48{fill:#F5897E;}
	.st49{fill:#FEC554;}
	.st50{fill-rule:evenodd;clip-rule:evenodd;fill:#F8991D;}
	.st51{fill-rule:evenodd;clip-rule:evenodd;fill:#EC8223;}
	.st52{fill:#3B62AE;}
	.st53{fill-rule:evenodd;clip-rule:evenodd;fill:#2D327F;}
	.st54{fill-rule:evenodd;clip-rule:evenodd;fill:#FFFFFF;}
	.st55{fill-rule:evenodd;clip-rule:evenodd;fill:#4EB966;}
	.st56{fill-rule:evenodd;clip-rule:evenodd;fill:#4468B1;}
	.st57{fill-rule:evenodd;clip-rule:evenodd;fill:#FCB017;}
	.st58{fill-rule:evenodd;clip-rule:evenodd;fill:#D08C2A;}
	.st59{fill:#1B0E1F;}
	.st60{opacity:0.49;fill:#4EB966;enable-background:new    ;}
	.st61{fill:url(#SVGID_1_);}
	.st62{fill:url(#SVGID_2_);}
	.st63{fill:url(#SVGID_3_);}
	.st64{fill:url(#SVGID_4_);}
	.st65{opacity:0.1;fill:#8CB3CD;enable-background:new    ;}
</style>
<g>
	<g id="Layer_2_1_">
		<g id="Layer_1-2">
			<g class="st0">
				<g class="st1">
					<rect x="180.99" y="57.3" class="st2" width="69.35" height="177.58"/>
					<rect x="183.07" y="58.84" class="st3" width="65.02" height="176.04"/>
					<path class="st4" d="M247.96,95.19l-0.08,23.03l0.21,10.14V79.81L247.96,95.19z M248.03,234.88h0.06v-1.16L248.03,234.88z
						 M242.9,186.07l-1.44-14.18l0.31-12.45l0.01-6.91l-1.04-15.03l-0.79-10.52l1.29-10.75l1.61-7.03l0.36-12.07l-1.44-10.4
						l0.76-20.26l-0.36-7.62h-0.5l0.36,7.63l-0.76,20.26v0.05l1.44,10.41L242.37,109l-1.61,7.04l-1.32,10.92l0.8,10.63l1.03,14.98
						l-0.01,6.86l-0.31,12.51l1.44,14.3l0.91,4.65l-0.23,11.8l-0.68,14.44l-0.54,17.75h0.5l0.54-17.71l0.68-14.45l0.24-11.88v-0.06
						L242.9,186.07z M247.07,192.49l-1.05-11.75l-1.98-13.88l1.49-13.18l-1.64-13.82l-0.47-11.42l1.03-15.41l1.56-10.75l0.01-0.05
						l-0.63-14.48l0.63-8.76l-1.22-11.03l1.12-9.12h-0.51l-1.11,9.05l-0.01,0.07l1.22,11.06l-0.63,8.72l0.62,14.44l-1.56,10.75
						l-1.04,15.51l0.47,11.52l1.63,13.73l-1.49,13.19l2,13.99l1.04,11.65l-1.24,27.13l0.14,15.14l-0.01,0.1h0.5v-0.07l-0.13-15.15
						L247.07,192.49z M234.03,152.89l-0.69-20.56l-0.73-10.4l1.02-8.44l0.75-8.27l0.76-5.92l-1.09-13.21l-2.58-18.09l0.04-9.15h-0.5
						l-0.04,9.23l2.59,18.14l1.07,13.06l-0.75,5.83l-0.75,8.27l-1.02,8.47l-0.01,0.05l0.73,10.48l0.69,20.51l-0.87,34.32l1.26,8.78
						l-0.61,9.13l-0.77,14.59l-1.02,8.39l-0.31,6.58l-0.01,0.2h0.5l0.01-0.16l0.31-6.53l1.02-8.38l0.77-14.63l0.62-9.24l-1.27-8.8
						L234.03,152.89z M236.93,133.22l-0.39-13.54l0.37-5.71l1.14-4.43l-0.12-11.04l-0.24-7.2l-1.74-11.18l-0.62-15.47l-0.44-5.82
						h-0.51l0.45,5.88l0.63,15.51l1.74,11.18l0.23,7.12l0.12,10.88l-1.12,4.33l-0.39,5.91l0.39,13.65l0.85,6.56l0.07,4.48
						l-0.75,23.99l-0.31,12.99l0.76,8.71l-1.22,9.41v27.77l-0.13,7.68h0.5l0.13-7.67l-0.01-27.7l1.23-9.45l-0.77-8.77l0.32-12.92
						l0.5-15.44l0.25-8.57l-0.07-4.57L236.93,133.22z M211.7,218.76l-0.93-1.35l-1.79-12.09l-1.2-38.63l-0.31-29.34l0.68-13.12
						l0.25-13.6l0.96-10.51l1.22-5.41l0.1-9.12l0.47-9.1l-0.21-14.31l-0.07-3.35h-0.5l0.07,3.37l0.21,14.26l-0.47,9.08l-0.08,8.97
						l-1.22,5.42l-0.97,10.62l-0.25,13.62l-0.68,13.14l0.31,29.38l1.21,38.71l1.83,12.37l0.89,1.29l0.09,7.55l-0.37,8.25h0.52
						l0.35-8.23L211.7,218.76z M241.08,188.25l-1.82-15.56l-0.5,0.07l0.05,13.25l-0.42,11.28l-0.15,9.66l-0.15,6.23l0.21,7.18
						l-1.2,14.53h0.5l1.2-14.5l-0.21-7.21l0.15-6.21l0.15-9.65l0.42-11.29l-0.03-8.78l1.3,11.09l0.08,5.63l-0.45,21.12l-0.38,8.86
						l-0.8,10.94h0.51l0.8-10.87l0.38-8.89l0.45-21.15L241.08,188.25z M186.37,170.35l-2.11-25.81l-0.09-16.55l-0.2-17.45
						l-0.01-15.09l-0.39-15.95l0.39-14.64l-0.05-6.02h-0.5l0.05,6.01l-0.39,14.65l0.39,15.96l0.01,15.08l0.2,17.45l0.09,16.59
						l2.11,25.89l2.05,13.71l-0.09,21.4l-0.07,23.92l-0.06,5.37h0.5l0.06-5.36l0.07-23.93l0.09-21.44v-0.04L186.37,170.35z
						 M222.54,178.7l0.35-19.73l0.11-14.39l-1.38-14.35l-0.85-41.69l-0.43-16.38l-0.75-13.32h-0.5l0.75,13.37l0.43,16.36l0.85,41.72
						l1.38,14.34l-0.11,14.33l-0.35,19.78l0.83,11.18l-0.78,11.91l-0.93,26.29l-0.42,6.77h0.5l0.42-6.71l0.93-26.29l0.79-11.93
						v-0.04L222.54,178.7z M225.26,190.92l0.27-22.44l0.01-12.58l0.25-11.13l-0.43-7.36l-1.42-9.61l-0.63-21.96l0.4-22.01
						l-0.46-9.04l-0.46-15.94h-0.51l0.25,8.79l0.22,7.2l0.46,9.01l-0.4,22l0.63,22.06l1.43,9.63l0.42,7.27l-0.25,11.1l-0.01,12.58
						l-0.27,22.44L224.69,207l0.36,8.1l-0.36,7.2l-0.34,10.51l-0.1,2.07h0.5l0.1-2.03l0.34-10.51l0.36-7.24l-0.36-8.13
						L225.26,190.92z M230.81,172.36l0.98-15.58l-0.16-9.11l-0.21-4.14l-1.09-10.8l-2.48,7.59l-0.41,12.82l-0.36,8.85l0.23,14.06
						l-0.35,9.63l0.4,9.81l0.25,20.63l-0.89,14.43l-0.45,4.33h0.51l0.43-4.24l0.89-14.5l-0.24-20.69l-0.4-9.79l0.35-9.62L227.58,162
						l0.36-8.82l0.39-12.6l1.75-5.35l0.85,8.39l0.21,4.09l0.17,9.05l-0.98,15.54l-0.74,13.98l0.93,11.99l-0.58,22.7l-0.66,9.09
						l-0.39,4.83h0.5l0.38-4.74l0.66-9.12l0.58-22.78l-0.93-11.98L230.81,172.36z M201.57,221.24l0.38-8.14l-0.24-8.83l-0.68-36.04
						l-0.46-22.19l-1.27-13.95l-2.49,18.14l-0.59,16.53l-0.87,19.04l-0.34,18.71l0.12,8.62l-0.34,7.44l0.28,14.31h0.5l-0.28-14.3
						l0.35-7.44l-0.12-8.63l0.34-18.68l0.87-19.02l0.59-16.48l1.89-13.77l0.87,9.55l0.46,22.15l0.67,36.04l0.24,8.8l-0.38,8.14
						l0.45,13.56l0.5-0.04L201.57,221.24z M219.23,162.37l0.29-18.66l-0.5-11.88l-1.07-13.5l-1.81-24.64l0.11-16.93l0.26-12.74
						l-0.05-5.19h-0.5l0.05,5.18l-0.26,12.73l-0.1,16.99l1.82,24.69l1.07,13.48l0.49,11.82l-0.29,18.64l0.38,26.23l-0.37,11.45
						l-0.93,12.2l-1.32,13.09l0.1,9.54h0.5l-0.1-9.48l1.32-13.05l0.93-12.23l0.37-11.5L219.23,162.37z M196.41,84.66l-0.57-25.83
						h-0.5l0.57,25.84l0.15,14.1l-0.34,14.66l-1.22,11.47l-0.9,9.07l0.18,9.21l-0.46,10.03l-1.18,18.24l-0.5,23.2l0.43,15.39
						l-0.37,10.44l-0.16,8.91l0.41,5.49h0.5l-0.41-5.52l0.16-8.85l0.37-10.45l-0.43-15.4l0.5-23.14l1.18-18.22l0.46-10.08
						l-0.19-9.18l0.9-9l1.22-11.51l0.35-14.72L196.41,84.66z M206.52,226.4l-0.87-4.28l0.19-10.3l-0.27-8.81l-0.79-9.72l-0.27-21.7
						l-0.46-11.92l0.3-10.57l-0.3-11.39l-2.38-12.68l-1.2-21.14l-1.1-24.33l-0.43-20.74h-0.51l0.43,20.77l1.11,24.35l1.21,21.21
						l2.37,12.62l0.3,11.32l-0.3,10.58l0.46,11.94l0.27,21.72l0.79,9.73l0.27,8.75l-0.19,10.39l0.87,4.26l0.24,8.4h0.5L206.52,226.4
						z M216.9,159.11l-0.23-8.4l0.27-6.9l-0.79-8.37l-0.94-7.7l-0.87-18.68l-0.98-31.28l0.31-11.13v-7.83h-0.5v7.81l-0.31,11.15
						l0.98,31.32l0.87,18.72l0.95,7.73l0.78,8.28l-0.27,6.86l0.23,8.43l0.4,19.95l-0.46,11.87l-1.14,15.74l-1.68,18.95l-0.65,4.83
						l-0.24,4.01l0.5,0.07l0.24-3.98l0.65-4.82l1.68-18.98l1.15-15.76l0.46-11.92L216.9,159.11z M199.53,206.17l-0.3-17.28
						l-0.32-16.24l-0.5-0.03l-1.2,14.79l-0.48,9.9l-0.01,11.08l-0.19,23.87l0.5,0.01l0.2-23.87l0.01-11.06l0.47-9.85l0.79-9.79
						l0.22,11.22l0.3,17.26l-0.23,12.54l0.23,11.04l0.5-0.03l-0.23-11.02L199.53,206.17z M212.51,149.65l-1.24,7.64l0.23,10.47
						l0.68,11.62h0.5l0.99-20.15v-0.05L212.51,149.65z M212.4,174.64l-0.4-6.92l-0.22-10.35l0.67-4.09l0.72,5.95L212.4,174.64z
						 M212.51,149.65l-1.24,7.64l0.23,10.47l0.68,11.62h0.5l0.99-20.15v-0.05L212.51,149.65z M212.4,174.64l-0.4-6.92l-0.22-10.35
						l0.67-4.09l0.72,5.95L212.4,174.64z M212.51,149.65l-1.24,7.64l0.23,10.47l0.68,11.62h0.5l0.99-20.15v-0.05L212.51,149.65z
						 M212.4,174.64l-0.4-6.92l-0.22-10.35l0.67-4.09l0.72,5.95L212.4,174.64z M212.51,149.65l-1.24,7.64l0.23,10.47l0.68,11.62h0.5
						l0.99-20.15v-0.05L212.51,149.65z M212.4,174.64l-0.4-6.92l-0.22-10.35l0.67-4.09l0.72,5.95L212.4,174.64z M214.87,148.62
						l-0.68-11.39l-2.02-19.9l-1.12-15.86l-0.92,10.33l-0.36,19.12l0.08,11.6l-0.55,15.41l-0.13,12.41l0.28,10.69l0.61,11.18
						l0.31,8.95l0.44,8.54l2.22-6.49l1.84-18.85l0.61-19.13L214.87,148.62z M214.37,184.28l-1.8,18.64l-1.39,4.06l-0.3-5.87
						l-0.31-8.96l-0.61-11.18l-0.28-10.65l0.12-12.37l0.55-15.42l-0.08-11.61l0.36-19.06l0.36-4.07l0.68,9.64l2.02,19.9l0.68,11.35
						l0.6,16.55L214.37,184.28z M211.27,157.29l0.23,10.47l0.68,11.62h0.5l0.99-20.15v-0.05l-1.15-9.54L211.27,157.29z
						 M212.4,174.63l-0.4-6.92l-0.22-10.35l0.67-4.09l0.72,5.95L212.4,174.63z M212.51,149.64l-1.24,7.64l0.23,10.47l0.68,11.62h0.5
						l0.99-20.15v-0.05L212.51,149.64z M212.4,174.63l-0.4-6.92l-0.22-10.35l0.67-4.09l0.72,5.95L212.4,174.63z M212.51,149.64
						l-1.24,7.64l0.23,10.47l0.68,11.62h0.5l0.99-20.15v-0.05L212.51,149.64z M212.4,174.63l-0.4-6.92l-0.22-10.35l0.67-4.09
						l0.72,5.95L212.4,174.63z M212.51,149.64l-1.24,7.64l0.23,10.47l0.68,11.62h0.5l0.99-20.15v-0.05L212.51,149.64z M212.4,174.63
						l-0.4-6.92l-0.22-10.35l0.67-4.09l0.72,5.95L212.4,174.63z M212.51,149.64l-1.24,7.64l0.23,10.47l0.68,11.62h0.5l0.99-20.15
						v-0.05L212.51,149.64z M212.4,174.63l-0.4-6.92l-0.22-10.35l0.67-4.09l0.72,5.95L212.4,174.63z M192.52,90.66L192.3,76
						l-0.4-8.1l-0.18-9.06h-0.5l0.18,9.1l0.4,8.1l0.22,14.61l-1.33,35.2l-0.28,15.51l0.15,10.65l-0.71,12.08l-1.89-21.81
						l-1.14-25.18l0.2-24.49l-0.45-33.78h-0.5l0.45,33.78l-0.2,24.51l1.14,25.23l2.49,28.71l1.11-19.04l-0.15-10.68l0.28-15.48
						L192.52,90.66z M228.42,71.51L227.4,61.1l-0.07-2.26h-0.5l0.07,2.33l1.03,10.5l3.02,15.27l-0.11,18.8l-1.78,15.6l-1.26,5.47
						l-1.25,4.33l-1.46-8.87l-0.42-10.24l0.67-21.33v-9.94l0.18-9.51l-0.22-7.39v-5.03h-0.5v5.04l0.22,7.38l-0.19,9.49v9.93
						l-0.67,21.36l0.43,10.35l1.83,11.11l1.85-6.4l1.28-5.56l1.79-15.72l0.12-18.92v-0.06L228.42,71.51z M207.82,58.84h-0.5
						l0.62,10.24l-0.6,18.81l-0.31,8.58l-0.81,7.56l-1.58,15.71l-1.81-8.3l-0.44-10.57l-0.6-10.48l0.04-12.25l-0.48-11.59l0.29-6.86
						l-0.06-0.86h-0.5l0.06,0.88l-0.29,6.85l0.48,11.61l-0.04,12.26l0.6,10.5l0.44,10.61l2.48,11.47l1.9-18.86l0.82-7.6l0.32-8.62
						l0.6-18.87L207.82,58.84z M229.38,97.37l-1.23-15.47l-1.38,9.31l-0.46,18.44l0.78,7.87l1.88-8.71l0.6-4.36L229.38,97.37z
						 M228.48,108.61l-1.21,5.61l-0.46-4.62l0.46-18.27l0.73-4.95l0.88,11.05l0.19,6.95L228.48,108.61z M189.54,65.18l0.05-6.34
						h-0.5l-0.05,6.35l0.74,38.71l-0.11,4.74l-0.35-2.58l-0.51-15.78l-0.68-14.4l-0.54-14.48l0.07-2.57h-0.5l-0.07,2.57l0.54,14.53
						l0.68,14.39l0.51,15.83l1.2,8.84l0.26-11.1L189.54,65.18z M240.22,58.84h-0.51l0.41,3.67l-0.29,12.79l-0.54,10.27l-1.65-14.31
						l-0.63-12.43h-0.5l0.63,12.52l2.34,20.3l0.85-16.31l0.28-12.89L240.22,58.84z M205.17,58.84h-0.5l0.28,18.64l-0.54,8.87
						l-0.89-2.59l-0.32-12.47l-0.32-10.01l0.11-2.44h-0.5l-0.11,2.43l0.32,10.05l0.32,12.55l1.73,5.12l0.7-11.49L205.17,58.84z"/>
				</g>
				<g class="st0">
					<polygon class="st5" points="239.06,148.5 239.06,162.67 243.84,162.67 244.44,148.5 					"/>
					<polygon class="st6" points="239.56,148.89 243.89,148.89 243.47,162.38 242.9,149.77 239.56,149.64 					"/>
					<polygon class="st7" points="239.79,150.46 239.79,162.03 242.9,162.03 241.6,161.75 241.34,150.46 					"/>
					<path class="st8" d="M233.41,156.58c2.42-0.7,5.35-1.21,8.53-1.64c1.82-0.19,1.67,2.41-0.14,2.41c-3.05-0.09-5.75-0.13-8.07,0
						C233.16,157.37,232.75,156.77,233.41,156.58z"/>
					<path class="st6" d="M233.84,156.7c0,0,7.83-1.63,8.31-1.5c0.47,0.12,0.8,0.54,0.75,0.94s-8.98,0.79-8.98,0.79L233.84,156.7z"
						/>
				</g>
			</g>
			<g class="st0">
				<path class="st2" d="M14.31,122.43H34.6l0,0v3.64l0,0H14.31c-0.1,0-0.18-0.08-0.18-0.18l0,0v-3.27
					C14.12,122.51,14.21,122.43,14.31,122.43C14.31,122.43,14.31,122.43,14.31,122.43z"/>
				<path class="st2" d="M14.27,122.85h20.32c0.08,0,0.14,0.06,0.14,0.14v2.5c0,0.08-0.06,0.14-0.14,0.14H14.27
					c-0.08,0-0.14-0.06-0.14-0.14v-2.5C14.12,122.91,14.19,122.85,14.27,122.85z"/>
				<path class="st2" d="M14.26,122.43h13.96c0.08,0,0.14,0.06,0.14,0.14v3.36c0,0.08-0.06,0.14-0.14,0.14H14.26
					c-0.08,0-0.14-0.06-0.14-0.14v-3.36C14.12,122.49,14.19,122.43,14.26,122.43z"/>
				<path class="st2" d="M15.43,118.79h20.29l0,0v3.64l0,0H15.43c-0.1,0-0.18-0.08-0.18-0.18v-3.27
					C15.24,118.87,15.33,118.79,15.43,118.79z"/>
				<path class="st2" d="M15.39,119.21h20.32c0.08,0,0.14,0.06,0.14,0.14v2.5c0,0.08-0.06,0.14-0.14,0.14H15.39
					c-0.08,0-0.14-0.06-0.14-0.14v-2.5C15.24,119.28,15.31,119.21,15.39,119.21z"/>
				<path class="st2" d="M15.38,118.79h13.96c0.08,0,0.14,0.06,0.14,0.14v3.36c0,0.08-0.06,0.14-0.14,0.14H15.38
					c-0.08,0-0.14-0.06-0.14-0.14v-3.36C15.24,118.85,15.3,118.79,15.38,118.79z"/>
				<path class="st2" d="M14.58,115.16h20.29l0,0v3.64l0,0H14.58c-0.1,0-0.18-0.08-0.18-0.18v-3.27
					C14.4,115.24,14.48,115.16,14.58,115.16C14.58,115.16,14.58,115.16,14.58,115.16z"/>
				<path class="st2" d="M14.54,115.58h20.32c0.08,0,0.14,0.06,0.14,0.14v2.5c0,0.08-0.06,0.14-0.14,0.14H14.54
					c-0.08,0-0.14-0.06-0.14-0.14v-2.5C14.4,115.64,14.46,115.58,14.54,115.58z"/>
				<path class="st2" d="M14.53,115.16h13.96c0.08,0,0.14,0.06,0.14,0.14v3.36c0,0.08-0.06,0.14-0.14,0.14H14.53
					c-0.08,0-0.14-0.06-0.14-0.14v-3.36C14.4,115.22,14.46,115.16,14.53,115.16z"/>
				<g class="st9">
					<path class="st2" d="M18.24,111.52h20.29l0,0v3.64l0,0H18.24c-0.1,0-0.18-0.08-0.18-0.18v0v-3.27
						C18.05,111.6,18.14,111.52,18.24,111.52C18.24,111.52,18.24,111.52,18.24,111.52z"/>
					<path class="st2" d="M18.2,111.94h20.32c0.08,0,0.14,0.06,0.14,0.14v2.5c0,0.08-0.06,0.14-0.14,0.14H18.2
						c-0.08,0-0.14-0.06-0.14-0.14v-2.5C18.05,112.01,18.12,111.94,18.2,111.94z"/>
					<path class="st2" d="M18.19,111.52h13.96c0.08,0,0.14,0.06,0.14,0.14v3.36c0,0.08-0.06,0.14-0.14,0.14H18.19
						c-0.08,0-0.14-0.06-0.14-0.14v-3.36C18.05,111.58,18.11,111.52,18.19,111.52z"/>
				</g>
				<path class="st2" d="M51.89,150.44h20.29l0,0v3.64l0,0H51.89c-0.1,0-0.18-0.08-0.18-0.18v0v-3.27
					C51.7,150.52,51.79,150.44,51.89,150.44z"/>
				<path class="st2" d="M51.85,150.86h20.32c0.08,0,0.14,0.06,0.14,0.14v2.5c0,0.08-0.06,0.14-0.14,0.14H51.85
					c-0.08,0-0.14-0.06-0.14-0.14v-2.5C51.7,150.93,51.77,150.86,51.85,150.86z"/>
				<path class="st2" d="M51.84,150.44H65.8c0.08,0,0.14,0.06,0.14,0.14v3.36c0,0.08-0.06,0.14-0.14,0.14H51.84
					c-0.08,0-0.14-0.06-0.14-0.14v-3.36C51.7,150.5,51.77,150.44,51.84,150.44z"/>
				<path class="st2" d="M33.51,207.21H53.8l0,0v3.64l0,0H33.51c-0.1,0-0.18-0.08-0.18-0.18l0,0v-3.27
					C33.33,207.29,33.41,207.21,33.51,207.21z"/>
				<path class="st2" d="M33.47,207.63h20.32c0.08,0,0.14,0.06,0.14,0.14v2.5c0,0.08-0.06,0.14-0.14,0.14H33.47
					c-0.08,0-0.14-0.06-0.14-0.14v-2.5C33.33,207.69,33.39,207.63,33.47,207.63z"/>
				<path class="st2" d="M33.46,207.21h13.96c0.08,0,0.14,0.06,0.14,0.14v3.36c0,0.08-0.06,0.14-0.14,0.14H33.46
					c-0.08,0-0.14-0.06-0.14-0.14v-3.36C33.33,207.27,33.39,207.21,33.46,207.21z"/>
				<path class="st2" d="M30.19,203.66h20.29l0,0v3.64l0,0H30.19c-0.1,0-0.18-0.08-0.18-0.18v0v-3.26
					C30.01,203.75,30.09,203.66,30.19,203.66C30.19,203.66,30.19,203.66,30.19,203.66z"/>
				<path class="st2" d="M30.15,204.08h20.32c0.08,0,0.14,0.06,0.14,0.14v2.5c0,0.08-0.06,0.14-0.14,0.14H30.15
					c-0.08,0-0.14-0.06-0.14-0.14v-2.5C30.01,204.15,30.07,204.08,30.15,204.08z"/>
				<path class="st2" d="M30.14,203.66H44.1c0.08,0,0.14,0.06,0.14,0.14v3.36c0,0.08-0.06,0.14-0.14,0.14H30.14
					c-0.08,0-0.14-0.06-0.14-0.14v-3.36C30.01,203.72,30.07,203.66,30.14,203.66z"/>
				<path class="st2" d="M28.65,200.09h20.29l0,0v3.64l0,0H28.65c-0.1,0-0.18-0.08-0.18-0.18v0v-3.27
					C28.47,200.17,28.55,200.09,28.65,200.09L28.65,200.09z"/>
				<path class="st2" d="M28.61,200.51h20.32c0.08,0,0.14,0.06,0.14,0.14v2.5c0,0.08-0.06,0.14-0.14,0.14H28.61
					c-0.08,0-0.14-0.06-0.14-0.14v-2.5C28.47,200.57,28.53,200.51,28.61,200.51z"/>
				<path class="st2" d="M28.6,200.09h13.96c0.08,0,0.14,0.06,0.14,0.14v3.36c0,0.08-0.06,0.14-0.14,0.14H28.6
					c-0.08,0-0.14-0.06-0.14-0.14v-3.36C28.47,200.15,28.53,200.09,28.6,200.09z"/>
				<g class="st9">
					<path class="st2" d="M32.86,196.45h20.29l0,0v3.64l0,0H32.86c-0.1,0-0.18-0.08-0.18-0.18v0v-3.27
						C32.67,196.53,32.76,196.45,32.86,196.45z"/>
					<path class="st2" d="M32.82,196.87h20.32c0.08,0,0.14,0.06,0.14,0.14v2.5c0,0.08-0.06,0.14-0.14,0.14H32.82
						c-0.08,0-0.14-0.06-0.14-0.14v-2.5C32.67,196.94,32.74,196.87,32.82,196.87z"/>
					<path class="st2" d="M32.81,196.45h13.96c0.08,0,0.14,0.06,0.14,0.14v3.36c0,0.08-0.06,0.14-0.14,0.14H32.81
						c-0.08,0-0.14-0.06-0.14-0.14v-3.36C32.67,196.51,32.74,196.45,32.81,196.45z"/>
				</g>
				<path class="st2" d="M53.01,146.81H73.3l0,0v3.64l0,0H53.01c-0.1,0-0.18-0.08-0.18-0.18l0,0v-3.27
					C52.83,146.89,52.91,146.81,53.01,146.81z"/>
				<path class="st2" d="M52.97,147.23h20.32c0.08,0,0.14,0.06,0.14,0.14v2.5c0,0.08-0.06,0.14-0.14,0.14H52.97
					c-0.08,0-0.14-0.06-0.14-0.14v-2.5C52.82,147.29,52.89,147.23,52.97,147.23z"/>
				<path class="st2" d="M52.96,146.8h13.96c0.08,0,0.14,0.06,0.14,0.14v3.36c0,0.08-0.06,0.14-0.14,0.14H52.96
					c-0.08,0-0.14-0.06-0.14-0.14v-3.36C52.82,146.87,52.88,146.8,52.96,146.8z"/>
				<g class="st10">
					<path class="st2" d="M52.16,143.17h20.29l0,0v3.64l0,0H52.16c-0.1,0-0.18-0.08-0.18-0.18v0v-3.27
						C51.98,143.25,52.06,143.17,52.16,143.17C52.16,143.17,52.16,143.17,52.16,143.17z"/>
					<path class="st2" d="M52.12,143.59h20.32c0.08,0,0.14,0.06,0.14,0.14v2.5c0,0.08-0.06,0.14-0.14,0.14H52.12
						c-0.08,0-0.14-0.06-0.14-0.14v-2.5C51.98,143.66,52.04,143.59,52.12,143.59z"/>
					<path class="st2" d="M52.11,143.17h13.96c0.08,0,0.14,0.06,0.14,0.14v3.36c0,0.08-0.06,0.14-0.14,0.14H52.11
						c-0.08,0-0.14-0.06-0.14-0.14v-3.36C51.98,143.23,52.04,143.17,52.11,143.17z"/>
				</g>
				<path class="st2" d="M23.21,179.26H43.5l0,0v3.64l0,0H23.21c-0.1,0-0.18-0.08-0.18-0.18v0v-3.27
					C23.02,179.34,23.11,179.26,23.21,179.26z"/>
				<path class="st2" d="M23.17,179.68h20.32c0.08,0,0.14,0.06,0.14,0.14v2.5c0,0.08-0.06,0.14-0.14,0.14H23.17
					c-0.08,0-0.14-0.06-0.14-0.14v-2.5C23.02,179.75,23.09,179.68,23.17,179.68z"/>
				<path class="st2" d="M23.16,179.26h13.96c0.08,0,0.14,0.06,0.14,0.14v3.36c0,0.08-0.06,0.14-0.14,0.14H23.16
					c-0.08,0-0.14-0.06-0.14-0.14v-3.36C23.02,179.32,23.09,179.26,23.16,179.26z"/>
				<path class="st2" d="M24.33,175.63h20.29l0,0v3.64l0,0H24.33c-0.1,0-0.18-0.08-0.18-0.18v0v-3.27
					C24.14,175.71,24.23,175.63,24.33,175.63L24.33,175.63z"/>
				<path class="st2" d="M24.29,176.05h20.32c0.08,0,0.14,0.06,0.14,0.14v2.5c0,0.08-0.06,0.14-0.14,0.14H24.29
					c-0.08,0-0.14-0.06-0.14-0.14v-2.5C24.14,176.11,24.21,176.05,24.29,176.05z"/>
				<path class="st2" d="M24.28,175.63h13.96c0.08,0,0.14,0.06,0.14,0.14v3.36c0,0.08-0.06,0.14-0.14,0.14H24.28
					c-0.08,0-0.14-0.06-0.14-0.14v-3.36C24.14,175.69,24.2,175.63,24.28,175.63z"/>
				<g class="st9">
					<path class="st2" d="M20.02,171.99h20.29l0,0v3.64l0,0H20.02c-0.1,0-0.18-0.08-0.18-0.18v0v-3.27
						C19.84,172.07,19.92,171.99,20.02,171.99z"/>
					<path class="st2" d="M19.98,172.41H40.3c0.08,0,0.14,0.06,0.14,0.14v2.5c0,0.08-0.06,0.14-0.14,0.14H19.98
						c-0.08,0-0.14-0.06-0.14-0.14v-2.5C19.84,172.48,19.9,172.41,19.98,172.41z"/>
					<path class="st2" d="M19.97,171.99h13.96c0.08,0,0.14,0.06,0.14,0.14v3.36c0,0.08-0.06,0.14-0.14,0.14H19.97
						c-0.08,0-0.14-0.06-0.14-0.14v-3.36C19.84,172.05,19.9,171.99,19.97,171.99z"/>
				</g>
				<g class="st10">
					<path class="st2" d="M28.41,146.81H48.7l0,0v3.64l0,0H28.41c-0.1,0-0.18-0.08-0.18-0.18l0,0v-3.27
						C28.23,146.89,28.31,146.81,28.41,146.81z"/>
					<path class="st2" d="M28.37,147.23h20.32c0.08,0,0.14,0.06,0.14,0.14v2.5c0,0.08-0.06,0.14-0.14,0.14H28.37
						c-0.08,0-0.14-0.06-0.14-0.14v-2.5C28.22,147.29,28.29,147.23,28.37,147.23z"/>
					<path class="st2" d="M28.36,146.8h13.96c0.08,0,0.14,0.06,0.14,0.14v3.36c0,0.08-0.06,0.14-0.14,0.14H28.36
						c-0.08,0-0.14-0.06-0.14-0.14v-3.36C28.22,146.87,28.29,146.8,28.36,146.8z"/>
				</g>
				<path class="st2" d="M26.95,150.44h20.3l0,0v3.64l0,0h-20.3c-0.1,0-0.18-0.08-0.18-0.18v0v-3.27
					C26.77,150.52,26.85,150.44,26.95,150.44z"/>
				<path class="st2" d="M26.91,150.86h20.32c0.08,0,0.14,0.06,0.14,0.14v2.5c0,0.08-0.06,0.14-0.14,0.14H26.91
					c-0.08,0-0.14-0.06-0.14-0.14v-2.5C26.77,150.93,26.84,150.86,26.91,150.86z"/>
				<path class="st2" d="M26.91,150.44h13.96c0.08,0,0.14,0.06,0.14,0.14v3.36c0,0.08-0.06,0.14-0.14,0.14H26.91
					c-0.08,0-0.14-0.06-0.14-0.14v-3.36C26.77,150.5,26.83,150.44,26.91,150.44z"/>
				<path class="st2" d="M47.62,176.14h17.3l0,0v3.1l0,0h-17.3c-0.1,0-0.18-0.08-0.18-0.18v0v-2.74
					C47.44,176.22,47.52,176.14,47.62,176.14z"/>
				<path class="st2" d="M47.58,176.5h17.31c0.08,0,0.14,0.06,0.14,0.14v2.1c0,0.08-0.06,0.14-0.14,0.14H47.58
					c-0.08,0-0.14-0.06-0.14-0.14v-2.1C47.44,176.56,47.5,176.5,47.58,176.5z"/>
				<path class="st2" d="M47.57,176.14h11.88c0.08,0,0.14,0.06,0.14,0.14v2.83c0,0.08-0.06,0.14-0.14,0.14H47.57
					c-0.08,0-0.14-0.06-0.14-0.14v-2.83C47.44,176.2,47.5,176.14,47.57,176.14z"/>
				<path class="st2" d="M46.38,179.24h17.3l0,0v3.1l0,0h-17.3c-0.1,0-0.18-0.08-0.18-0.18v0v-2.74
					C46.19,179.33,46.28,179.24,46.38,179.24z"/>
				<path class="st2" d="M46.34,179.6h17.31c0.08,0,0.14,0.06,0.14,0.14v2.1c0,0.08-0.06,0.14-0.14,0.14H46.34
					c-0.08,0-0.14-0.06-0.14-0.14v-2.1C46.19,179.67,46.26,179.6,46.34,179.6z"/>
				<path class="st2" d="M46.33,179.24h11.88c0.08,0,0.14,0.06,0.14,0.14v2.83c0,0.08-0.06,0.14-0.14,0.14H46.33
					c-0.08,0-0.14-0.06-0.14-0.14v-2.83C46.19,179.3,46.26,179.24,46.33,179.24z"/>
				<path class="st2" d="M77.02,103.68v22.11c0,0.03-0.02,0.05-0.05,0.05h-3.53c-0.03,0-0.05-0.02-0.05-0.05v-22.11
					c0-0.03,0.02-0.05,0.05-0.05h3.53C77,103.63,77.02,103.65,77.02,103.68z"/>
				<path class="st2" d="M76.09,105.18v10.77c0,0.03-0.02,0.05-0.05,0.05h-1.68c-0.03,0-0.05-0.02-0.05-0.05v-10.77
					c0-0.03,0.02-0.05,0.05-0.05h1.68C76.07,105.13,76.09,105.15,76.09,105.18z"/>
				<path class="st2" d="M72.98,103.68v22.11c0,0.03-0.02,0.05-0.05,0.05H69.4c-0.03,0-0.05-0.02-0.05-0.05v-22.11
					c0-0.03,0.02-0.05,0.05-0.05h3.53C72.96,103.63,72.98,103.65,72.98,103.68z"/>
				<path class="st2" d="M72.05,105.18v10.77c0,0.03-0.02,0.05-0.05,0.05h-1.68c-0.03,0-0.05-0.02-0.05-0.05v-10.77
					c0-0.03,0.02-0.05,0.05-0.05H72C72.03,105.13,72.05,105.15,72.05,105.18z"/>
				<g class="st9">
					<path class="st2" d="M68.94,103.68v22.11c0,0.03-0.02,0.05-0.05,0.05h-3.53c-0.03,0-0.05-0.02-0.05-0.05v-22.11
						c0-0.03,0.02-0.05,0.05-0.05h3.53C68.92,103.63,68.94,103.65,68.94,103.68z"/>
					<path class="st2" d="M68.01,105.18v10.77c0,0.03-0.02,0.05-0.05,0.05h-1.68c-0.03,0-0.05-0.02-0.05-0.05v-10.77
						c0-0.03,0.02-0.05,0.05-0.05h1.68C67.99,105.13,68.01,105.15,68.01,105.18z"/>
				</g>
				<path class="st2" d="M64.9,109.64v16.15c0,0.03-0.02,0.05-0.05,0.05h-2.56c-0.03,0-0.05-0.02-0.05-0.05v-16.15
					c0-0.03,0.02-0.05,0.05-0.05h2.56C64.88,109.59,64.9,109.61,64.9,109.64z"/>
				<path class="st2" d="M64.22,110.73v7.85c0,0.03-0.02,0.05-0.05,0.05h-1.2c-0.03,0-0.05-0.02-0.05-0.05v-7.85
					c0-0.03,0.02-0.05,0.05-0.05h1.2C64.2,110.68,64.22,110.71,64.22,110.73z"/>
				<path class="st2" d="M76.78,188.68v22.11c0,0.03-0.02,0.05-0.05,0.05H73.2c-0.03,0-0.05-0.02-0.05-0.05v-22.11
					c0-0.03,0.02-0.05,0.05-0.05h3.53C76.76,188.63,76.78,188.65,76.78,188.68z"/>
				<path class="st2" d="M75.85,190.18v10.77c0,0.03-0.02,0.05-0.05,0.05h-1.68c-0.03,0-0.05-0.02-0.05-0.05v-10.77
					c0-0.03,0.02-0.05,0.05-0.05h1.68C75.83,190.13,75.85,190.15,75.85,190.18z"/>
				<path class="st2" d="M72.74,194.64v16.15c0,0.03-0.02,0.05-0.05,0.05h-2.56c-0.03,0-0.05-0.02-0.05-0.05v-16.15
					c0-0.03,0.02-0.05,0.05-0.05h2.56C72.72,194.59,72.74,194.61,72.74,194.64z"/>
				<path class="st2" d="M72.06,195.74v7.85c0,0.03-0.02,0.05-0.05,0.05h-1.2c-0.03,0-0.05-0.02-0.05-0.05v-7.85
					c0-0.03,0.02-0.05,0.05-0.05h1.2C72.04,195.69,72.06,195.71,72.06,195.74z"/>
				<path class="st2" d="M69.58,188.68v22.11c0,0.03-0.02,0.05-0.05,0.05H66c-0.03,0-0.05-0.02-0.05-0.05v-22.11
					c0-0.03,0.02-0.05,0.05-0.05h3.53C69.56,188.63,69.58,188.66,69.58,188.68z"/>
				<path class="st2" d="M68.65,190.18v10.77c0,0.03-0.02,0.05-0.05,0.05h-1.68c-0.03,0-0.05-0.02-0.05-0.05v-10.77
					c0-0.03,0.02-0.05,0.05-0.05h1.68C68.63,190.13,68.65,190.15,68.65,190.18z"/>
				<path class="st2" d="M65.54,194.64v16.15c0,0.03-0.02,0.05-0.05,0.05h-2.56c-0.03,0-0.05-0.02-0.05-0.05v-16.15
					c0-0.03,0.02-0.05,0.05-0.05h2.56C65.52,194.59,65.54,194.61,65.54,194.64z"/>
				<path class="st2" d="M64.86,195.74v7.85c0,0.03-0.02,0.05-0.05,0.05h-1.2c-0.03,0-0.05-0.02-0.05-0.05v-7.85
					c0-0.03,0.02-0.05,0.05-0.05h1.2C64.84,195.69,64.86,195.71,64.86,195.74z"/>
				<path class="st2" d="M62.38,188.68v22.11c0,0.03-0.02,0.05-0.05,0.05H58.8c-0.03,0-0.05-0.02-0.05-0.05v-22.11
					c0-0.03,0.02-0.05,0.05-0.05h3.53C62.36,188.63,62.38,188.66,62.38,188.68z"/>
				<path class="st2" d="M61.45,190.18v10.77c0,0.03-0.02,0.05-0.05,0.05h-1.68c-0.03,0-0.05-0.02-0.05-0.05v-10.77
					c0-0.03,0.02-0.05,0.05-0.05h1.68C61.43,190.13,61.45,190.15,61.45,190.18z"/>
				<path class="st2" d="M58.34,194.64v16.15c0,0.03-0.02,0.05-0.05,0.05h-2.56c-0.03,0-0.05-0.02-0.05-0.05v-16.15
					c0-0.03,0.02-0.05,0.05-0.05h2.56C58.32,194.59,58.34,194.61,58.34,194.64z"/>
				<path class="st2" d="M57.66,195.74v7.85c0,0.03-0.02,0.05-0.05,0.05h-1.2c-0.03,0-0.05-0.02-0.05-0.05v-7.85
					c0-0.03,0.02-0.05,0.05-0.05h1.2C57.64,195.69,57.66,195.71,57.66,195.74z"/>
				<g class="st9">
					<path class="st2" d="M21.51,188.68v22.11c0,0.03-0.02,0.05-0.05,0.05h-3.53c-0.03,0-0.05-0.02-0.05-0.05v-22.11
						c0-0.03,0.02-0.05,0.05-0.05h3.53C21.49,188.63,21.51,188.65,21.51,188.68z"/>
					<path class="st2" d="M20.59,190.18v10.77c0,0.03-0.02,0.05-0.05,0.05h-1.68c-0.03,0-0.05-0.02-0.05-0.05v-10.77
						c0-0.03,0.02-0.05,0.05-0.05h1.68C20.56,190.13,20.59,190.15,20.59,190.18z"/>
					<path class="st2" d="M17.47,194.64v16.15c0,0.03-0.02,0.05-0.05,0.05h-2.56c-0.03,0-0.05-0.02-0.05-0.05v-16.15
						c0-0.03,0.02-0.05,0.05-0.05h2.56C17.45,194.59,17.47,194.61,17.47,194.64z"/>
					<path class="st2" d="M16.8,195.74v7.85c0,0.03-0.02,0.05-0.05,0.05h-1.2c-0.03,0-0.05-0.02-0.05-0.05v-7.85
						c0-0.03,0.02-0.05,0.05-0.05h1.2C16.77,195.69,16.8,195.71,16.8,195.74z"/>
				</g>
				<path class="st2" d="M61.94,109.64v16.15c0,0.03-0.02,0.05-0.05,0.05h-2.56c-0.03,0-0.05-0.02-0.05-0.05v-16.15
					c0-0.03,0.02-0.05,0.05-0.05h2.56C61.92,109.59,61.94,109.61,61.94,109.64z"/>
				<path class="st2" d="M61.26,110.73v7.85c0,0.03-0.02,0.05-0.05,0.05h-1.2c-0.03,0-0.05-0.02-0.05-0.05v-7.85
					c0-0.03,0.02-0.05,0.05-0.05h1.2C61.24,110.68,61.26,110.71,61.26,110.73z"/>
				<path class="st2" d="M77.02,160.31v22.11c0,0.03-0.02,0.05-0.05,0.05h-3.53c-0.03,0-0.05-0.02-0.05-0.05v-22.11
					c0-0.03,0.02-0.05,0.05-0.05h3.53C77,160.26,77.02,160.29,77.02,160.31z"/>
				<path class="st2" d="M76.09,161.81v10.77c0,0.03-0.02,0.05-0.05,0.05h-1.68c-0.03,0-0.05-0.02-0.05-0.05v-10.77
					c0-0.03,0.02-0.05,0.05-0.05h1.68C76.07,161.76,76.09,161.78,76.09,161.81z"/>
				<path class="st2" d="M72.86,160.31v22.11c0,0.03-0.02,0.05-0.05,0.05h-3.53c-0.03,0-0.05-0.02-0.05-0.05v-22.11
					c0-0.03,0.02-0.05,0.05-0.05h3.53C72.84,160.26,72.86,160.29,72.86,160.31z"/>
				<path class="st2" d="M71.94,161.81v10.77c0,0.03-0.02,0.05-0.05,0.05h-1.68c-0.03,0-0.05-0.02-0.05-0.05v-10.77
					c0-0.03,0.02-0.05,0.05-0.05h1.68C71.91,161.76,71.94,161.78,71.94,161.81z"/>
				<path class="st2" d="M68.71,165.58v16.84c0,0.03-0.02,0.05-0.05,0.05h-2.67c-0.03,0-0.05-0.02-0.05-0.05v-16.84
					c0-0.03,0.02-0.05,0.05-0.05h2.67C68.69,165.53,68.71,165.55,68.71,165.58z"/>
				<path class="st2" d="M68,166.72v8.19c0,0.03-0.02,0.05-0.05,0.05H66.7c-0.03,0-0.05-0.02-0.05-0.05v-8.19
					c0-0.03,0.02-0.05,0.05-0.05h1.25C67.98,166.67,68,166.69,68,166.72z"/>
				<g class="st10">
					<path class="st2" d="M21.8,132.11v22.11c0,0.03-0.02,0.05-0.05,0.05h-3.53c-0.03,0-0.05-0.02-0.05-0.05v-22.11
						c0-0.03,0.02-0.05,0.05-0.05h3.53C21.77,132.06,21.8,132.09,21.8,132.11C21.8,132.11,21.8,132.11,21.8,132.11z"/>
					<path class="st2" d="M20.87,133.61v10.77c0,0.03-0.02,0.05-0.05,0.05h-1.68c-0.03,0-0.05-0.02-0.05-0.05v-10.77
						c0-0.03,0.02-0.05,0.05-0.05h1.68C20.85,133.56,20.87,133.58,20.87,133.61z"/>
				</g>
				<path class="st2" d="M17.76,132.11v22.11c0,0.03-0.02,0.05-0.05,0.05h-3.53c-0.03,0-0.05-0.02-0.05-0.05v-22.11
					c0-0.03,0.02-0.05,0.05-0.05h3.53C17.73,132.06,17.76,132.09,17.76,132.11C17.76,132.11,17.76,132.11,17.76,132.11z"/>
				<path class="st2" d="M16.83,133.61v10.77c0,0.03-0.02,0.05-0.05,0.05H15.1c-0.03,0-0.05-0.02-0.05-0.05v-10.77
					c0-0.03,0.02-0.05,0.05-0.05h1.68C16.81,133.56,16.83,133.58,16.83,133.61z"/>
				<path class="st2" d="M39.67,107.1l14.95,16.28c0.02,0.02,0.02,0.05,0,0.07l-2.6,2.39c-0.02,0.02-0.05,0.02-0.07,0l-14.95-16.28
					c-0.02-0.02-0.02-0.05,0-0.07l2.6-2.39C39.61,107.08,39.65,107.08,39.67,107.1z"/>
				<path class="st2" d="M40,108.83l7.28,7.93c0.02,0.02,0.02,0.05,0,0.07l-1.23,1.13c-0.02,0.02-0.05,0.02-0.07,0l-7.29-7.93
					c-0.02-0.02-0.02-0.05,0-0.07l1.23-1.13C39.94,108.81,39.98,108.81,40,108.83z"/>
				<path class="st3" d="M10.93,87.02v148.54h69.56V87.02H10.93z M77.35,90.16v35.45H13.62V90.16H77.35z M13.62,182.16v-25.58h63.73
					v25.58L13.62,182.16z M77.35,185.3v25.13H13.62V185.3L77.35,185.3z M13.62,154.34v-26.03h63.73v26.03H13.62z"/>
			</g>
			<path class="st11" d="M62.33,235.18h183.74c0.94,0,1.7,0.76,1.7,1.7v5.28c0,0.94-0.76,1.7-1.7,1.7H62.33
				c-0.94,0-1.7-0.76-1.7-1.7v-5.28C60.63,235.94,61.39,235.18,62.33,235.18z"/>
			<path class="st12" d="M121.32,179.06h5.1c2.27,0,3.82-0.72,5.77-3.97l4.4-7.35c0,0,1.68-2.65,5.97-2.65h12.88
				c1.66,0,4.91,0.24,6.01,2.78c1.11,2.54,5.36,12.54,5.36,12.54l-8.13,0.6l-7.79,12.79c0,0-10.74,0.83-12.88,0.59
				c-2.15-0.24-10.31-0.72-10.31-0.72L121.32,179.06z"/>
			<path class="st13" d="M144.74,233.74v-41.8c-0.01-0.26-0.22-0.47-0.48-0.47h-0.36c-0.26,0-0.48,0.2-0.48,0.47v41.8
				c0.01,0.26,0.22,0.47,0.48,0.47h0.36C144.52,234.21,144.73,234,144.74,233.74z"/>
			<path class="st14" d="M144.74,196.42h-1.33c-0.99,0-1.81,0.78-1.81,1.74v1.69c0,0.96,0.81,1.74,1.81,1.74h1.33
				c0.99,0,1.81-0.78,1.81-1.74v-1.69C146.55,197.2,145.74,196.42,144.74,196.42z"/>
			<path class="st14" d="M145.18,231.66h-2.19c-0.52-0.01-0.95,0.41-0.97,0.93v0.69c0.01,0.52,0.44,0.94,0.97,0.93h2.19
				c0.52,0.01,0.95-0.41,0.97-0.93v-0.69C146.13,232.07,145.7,231.65,145.18,231.66z"/>
			<path class="st15" d="M149.9,232.93h-11.63c-0.82,0-1.48,0.64-1.48,1.43v1.05c0,0.79,0.67,1.43,1.48,1.43h11.63
				c0.82,0,1.48-0.64,1.48-1.43v-1.05C151.38,233.58,150.71,232.93,149.9,232.93z"/>
			<path class="st15" d="M153.35,197.28L153.35,197.28c0-0.68-0.57-1.23-1.27-1.23h-15.99c-0.69-0.01-1.26,0.54-1.27,1.23
				c0,0,0,0,0,0l0,0c0.01,0.69,0.58,1.24,1.27,1.23h15.99C152.76,198.52,153.33,197.97,153.35,197.28z"/>
			<path class="st13" d="M156.77,196.78L156.77,196.78c-0.01-0.39-0.33-0.7-0.72-0.69h-23.93c-0.39,0-0.71,0.31-0.72,0.69l0,0
				c0.01,0.39,0.33,0.7,0.72,0.69h23.93C156.44,197.47,156.76,197.16,156.77,196.78z"/>
			<path class="st16" d="M139.81,194.08h16.22c0.78,0,1.41,0.61,1.41,1.36l0,0c0,0.75-0.64,1.36-1.41,1.36h-16.22
				c-0.78,0-1.41-0.61-1.41-1.36l0,0C138.4,194.7,139.03,194.08,139.81,194.08z"/>
			<path class="st17" d="M130.58,194.08h13.82c0.78,0,1.41,0.61,1.41,1.36l0,0c0,0.75-0.64,1.36-1.41,1.36h-13.82
				c-0.78,0-1.41-0.61-1.41-1.36l0,0C129.16,194.7,129.79,194.08,130.58,194.08z"/>
			<path class="st18" d="M159.36,167.87c0.93,2.14,4.09,9.54,5.07,11.84h1.31c0.46,0,0.89,0.27,1.07,0.69c0,0-4.26-9.99-5.36-12.54
				s-4.36-2.78-6.01-2.78h-2.09C155,165.09,158.26,165.32,159.36,167.87z"/>
			<path class="st19" d="M115.62,181.3c-0.62,0.03-1.15-0.44-1.18-1.05c-0.03-0.62,0.44-1.15,1.05-1.18c0.04,0,0.08,0,0.13,0h6.26
				c0.47,0,0.9,0.28,1.08,0.72l6.29,13.42h21.16l7.58-12.93c0.21-0.35,0.59-0.57,1-0.56l0,0h6.75c0.62-0.03,1.15,0.44,1.18,1.05
				c0.03,0.62-0.44,1.15-1.05,1.18c-0.04,0-0.08,0-0.13,0h-6.08l-7.54,12.85c-0.2,0.4-0.61,0.65-1.05,0.64H128.5l0,0
				c-0.45,0-0.86-0.25-1.06-0.66l-6.32-13.49L115.62,181.3z"/>
			<polygon class="st20" points="105.02,169.95 109.24,235.18 107.37,235.18 101.7,173.03 69.97,173.03 64.3,235.18 62.43,235.18 
				66.65,169.95 			"/>
			<path class="st21" d="M129.18,188.37c-0.86,1.89-13.22,2.59-13.22,2.59c-1.05,12.87-3.05,21.32-4.53,26.26l0,0
				c-0.81,2.72-1.47,4.38-1.73,5.13c-0.72,2.13-0.21,4.18-0.21,4.18c0.01,0.39,0.01,0.77-0.01,1.14c-0.3,7.56-5.3,10.2-5.3,10.2
				l-1.13,0.18l-0.43,0.07l-3.07,0.47c0.61-0.45,1.15-0.99,1.61-1.6l0,0c8.54-11.23-0.63-52.36,2.35-56.5
				c3.14-4.37,20.33-4.98,20.33-4.98S130.04,186.47,129.18,188.37z"/>
			<path class="st22" d="M109.7,222.36c-0.72,2.13-0.21,4.18-0.21,4.18c0.01,0.39,0.01,0.77-0.01,1.14
				c-1.31,2.79-3.7,7.68-5.13,9.38c-0.49,0.58-0.92,0.88-1.3,1c-0.14,0.04-0.28,0.07-0.43,0.07c-0.92-0.01-1.42-1.05-1.46-1.12l0,0
				l0,0l0,0c2.84,0.93,7.34-9.83,7.43-12.15c0.09-2.29,2.74-7.47,2.83-7.63C110.61,219.94,109.95,221.6,109.7,222.36z"/>
			<path class="st23" d="M105.35,179c0,0,2.56-0.18,4.77,1.62c2.61,2.12-2.41,20.6,2.57,31.89c4.98,11.3,12.04-36.98,12.04-36.98
				S111.55,174.62,105.35,179z"/>
			<path class="st22" d="M119.5,177.24c0,0-6.88,0.89-7.62,3.91s0.75,30.64,0.75,30.64l9.8-34.06L119.5,177.24z"/>
			<path class="st24" d="M108.98,227.18c-0.11,0.47-0.25,0.94-0.43,1.39c-0.53,1.27-1.36,2.41-2.09,3.57
				c-0.78,1.24-1.51,2.53-2.3,3.77c-0.41,0.63-0.86,1.12-1.62,1.23c-0.35,0.05-0.7,0.04-1.04-0.02c-0.21-0.04-0.43-0.18-0.63-0.2
				c-0.18-0.02-0.35,0.1-0.5,0.18c-0.57,0.32-1.09,0.72-1.65,1.05c-0.49,0.29-1.02,0.46-1.53,0.72c-0.16,0.08-0.38,0.18-0.44,0.37
				c-0.08,0.28,0.2,0.58,0.42,0.7c0.64,0.37,1.61,0.21,2.3,0.22c1.48,0.02,3.03,0.15,4.51-0.04c0.48-0.06,0.98-0.17,1.31-0.58
				c0.6-0.76,0.8-1.91,1.15-2.8c0.29-0.75,0.64-1.53,1.2-2.11c0.41-0.41,0.91-0.73,1.46-0.94c0.19-0.07,0.28-0.13,0.37,0.07
				c0.15,0.33,0.02,0.89,0.03,1.25c0.01,0.72,0.03,4.36,0.03,4.62c0,0.1-0.05,0.37,0,0.46c0.07,0.12-0.02,0.05,0.17,0.08
				c0.09,0.02,0.55,0.06,0.64,0c0.12-0.09,0.06-0.83,0.07-1.03c0.02-0.72,0.07-1.44,0.12-2.16c0.11-1.38,0.19-2.81,0.54-4.15
				c0.29-1.11,0.61-2.04,0.56-3.2c-0.03-0.62-0.12-1.27-0.41-1.82c-0.42-0.79-1.25-1.39-1.88-1.97L108.98,227.18z"/>
			<path class="st25" d="M117.13,162.32c0,0-4.89-0.92-7.42-0.82c-1.24,0.05-2.82,3.1-3.69,4.58l13.32-0.04L117.13,162.32z"/>
			<path class="st23" d="M116.75,162.25c0,0-1.86,3.17-7.51,3.32v0.67l9.53-0.2l-1.22-3.72L116.75,162.25z"/>
			<path class="st26" d="M117.13,163.08c0,0-0.13,2.47-2.04,2.67c-1.91,0.2-2.34,0.28-2.34,0.28h4.75L117.13,163.08z"/>
			<polygon class="st27" points="154.86,121.7 154.86,138.07 138.42,138.99 138.42,122.61 			"/>
			<path class="st28" d="M143.12,127.8c0,0,0.55,8.62,0,10.45c-0.55,1.83,6.67-5.29,6.67-5.29s-0.41-10.75-0.04-11.24
				C150.12,121.23,143.12,127.8,143.12,127.8z"/>
			<path class="st29" d="M149.67,130.34c0,0-4.99,3.76-5.63,3.84c-0.64,0.09-0.71-1.01-0.71-1.01l-1.92,1.62l1.68,2.84l6.85-4.8
				L149.67,130.34z"/>
			<path class="st23" d="M149.62,126.64c0,0-4.25,6.44-6.33,4.52l-0.1-2.93l6.43-3.83V126.64z"/>
			<path class="st30" d="M149.62,125.48c0,0-6.13,5.68-6.38,4.31c-0.02-0.12-0.04-0.54-0.04-0.54l6.47-4.07L149.62,125.48z"/>
			<path class="st25" d="M152.6,121.14c-0.86,3.83-7.84,7.36-9.04,7.93c-2.95,1.65-6.1-0.36-8.05-3.09
				c-1.53-2.14-2.31-4.73-1.66-6.35c0.89-2.24,0.72-3.96,0.58-5.61v-0.01c-0.09-1.07-0.18-2.11,0.04-3.26
				c0.55-2.94,3.24-2.94,3.24-2.94S153.33,117.89,152.6,121.14z"/>
			<path class="st23" d="M151.35,123.75l-3.96-8.25l-11.14-7.07c0,0-3.06,0.98-1.85,5.41c0,0,0.2-3.38,1.42-3.38
				c1.22-0.01,0.6,5.5,8.69,8.09c0,0,1.16,0.15,0.89,1.43c-0.24,1.14,0.21,4.16,2.62,5.34c-0.96,0.82-3.52,2.64-6.8,2.16
				c-0.04-0.73-0.67-1.29-1.4-1.25c-0.73,0.04-1.29,0.67-1.25,1.4c0.04,0.73,0.67,1.29,1.4,1.25c0.51-0.03,0.96-0.35,1.15-0.82
				c1.45,0.14,4.76,0.09,7.59-2.47c0.11,0.03,0.23,0.06,0.35,0.09L151.35,123.75z"/>
			<path class="st30" d="M136.85,109.99c0,0-0.58,3.23,5.86,6.69c0,0,2.05,0.69,2.45,0.95c0.54,0.34,0.73,1.66,0.73,1.66l1.89-2.11
				L136.85,109.99z"/>
			<path class="st31" d="M135.67,109.83c0,0-1.52,0.84-1.33,3.39c0,0-1.66-5.39,1.94-6.97c3.61-1.59,3.47,0.86,3.47,0.86
				L135.67,109.83z"/>
			<path class="st32" d="M141.19,133.53c0,0-6.3,1.85-6.99,2.42c-0.46,0.38-1.43,1.28-2.24,7.88s-1.63,14.79-1.63,14.79
				s-8.56,2.08-9.09,2.12c-0.53,0.04-4.11,0.65-4.11,0.65v4.69h50.32c0,0,1.89-0.08,0-6.5c-1.89-6.42-5.61-22.33-9.22-23.67
				c-3.61-1.34-7.65-2.73-7.65-2.73l-7.72,1.96L141.19,133.53z"/>
			<path class="st33" d="M134.9,144.57c0,0,0.08,21.15-3.83,21.51c-3.91,0.37-9.98,0-9.98,0l0.16-5.34l0.46-0.09
				c0,0,1.69,7.46,8.05,2.49c0,0,3.54-2.77,3.71-6.32C133.63,153.29,134.33,143.35,134.9,144.57z"/>
			<path class="st34" d="M154.37,145.77c0,0,6.76,14.1,5.26,13.99c-2.55-0.18-15.71,1.53-15.71,1.53s12.92-2.32,13.4-3.22
				C158.74,155.49,152.78,144.49,154.37,145.77z"/>
			<path class="st35" d="M130.84,162.4c0,0-2.93,0.7-4.11,3.68h10.76C137.48,166.08,134.21,161.66,130.84,162.4z"/>
			<path class="st33" d="M154.13,146.09c0,0-0.98,12.75-10.21,15.2c0,0,11.86-2.06,13.38-2.91
				C159.31,157.25,154.13,146.09,154.13,146.09z"/>
			<path class="st36" d="M141.11,135.66c0,0-0.21,1.25,0.67,0.95c0.89-0.3,2.08-1.47,2.57-1.07c0.49,0.39,1.1,3.18,1.74,3.1
				c0.64-0.08,6.52-4.7,6.52-4.7l-2.02-0.75c0,0-6.6,2.08-8.34,1.89L141.11,135.66z"/>
			<path class="st25" d="M129.17,191.42c-0.05,0.23-0.11,0.43-0.16,0.6c-0.01,0.03-0.01,0.05-0.02,0.08
				c-0.02,0.07-0.04,0.14-0.06,0.21c-0.01,0.02-0.01,0.04-0.02,0.06c-1.34-0.02-2.68-0.13-4-0.33c-2.1,14.2-5.03,22.87-6.82,27.4
				l0,0c-0.71,1.79-1.24,2.93-1.49,3.52c-0.86,2.08-0.49,4.15-0.49,4.15c-0.03,0.64-0.08,1.25-0.15,1.82
				c-0.83,6.9-4.36,8.57-4.36,8.57l-5.76,1.96c11.74-7.33,3.91-54.51,7.33-58.67c1.42-1.72,4.68-2.54,8.02-2.91l0,0
				c0.77-0.09,1.54-0.15,2.3-0.19c2.1,0.92,3.52,2.18,4.46,3.59c0.46,0.69,0.82,1.43,1.08,2.21c0.32,0.96,0.52,1.96,0.58,2.97l0,0
				C129.76,188.43,129.46,190.23,129.17,191.42z"/>
			<path class="st23" d="M124.73,179.01c3.43,3.45,4.52,6.17,4.54,8.23c0.03,2.08-2.69,2.97-3.88,1.26
				c-0.21-0.3-0.37-0.63-0.48-0.98c0.49,2,0,4.52,0,4.52l1.62,0.13l-0.03,0.02l4,0.33c0,0,3.25,0.77,3.78-3.38
				C134.81,184.97,124.73,179.01,124.73,179.01z"/>
			<path class="st37" d="M159.71,180.01c-0.03-0.27-0.06-0.54-0.09-0.8c-0.02-0.14-0.03-0.28-0.05-0.42
				c-0.05-0.35-0.1-0.7-0.15-1.04c-0.4-2.5-1-4.96-1.77-7.37c0,0-14.61-0.88-25.71-0.45l0,0c-2.3,0.09-4.44,0.23-6.28,0.45
				c-10.64,1.27-21.64,9.04-21.82,9.17c11-4.12,19.51-1.17,20.02-0.95c7.31,3.21,5.8,9.17,5.32,12.83c-0.04,0.23-0.1,0.46-0.18,0.68
				c-0.02,0.07-0.04,0.14-0.06,0.21c-0.01,0.02-0.01,0.04-0.02,0.06c-0.09,0.3-0.15,0.47-0.15,0.47s3.07,0.34,7.46,0.55
				c2.15,0.1,9.59-0.07,10.95-0.17c1.44-0.11,5.14-0.18,6.52-0.38c0.24-0.03,0.47-0.08,0.69-0.13c1.02-0.22,1.96-0.7,2.75-1.38
				c1.11-0.98,1.82-2.35,2.24-3.92C159.96,185.17,159.97,182.53,159.71,180.01z"/>
			<path class="st22" d="M116.6,222.96c-0.86,2.08-0.49,4.15-0.49,4.15c-0.03,0.64-0.08,1.25-0.15,1.82l-4.78,8.4l-4.24,1.51
				l1.11-1.52c0,0,0.76,2.25,4.06-3.25c3.3-5.5,3.1-6.8,3.1-6.8c1.08-5.74,2.82-7.78,2.87-7.84
				C117.38,221.22,116.85,222.37,116.6,222.96z"/>
			<path class="st38" d="M159.28,176.97c0,0-2.16,1.14-4.11,5.4c-1.96,4.26-12.67,11.23-26.4,10.46c0,0,22.14,1.33,26.94-0.48
				C160.5,190.54,160.75,185.02,159.28,176.97z"/>
			<path class="st39" d="M159.62,179.2c0,0-1.13-0.27-2.18,1.2s-5.87,11.99-11.63,12.9l6.9-0.22l6.99-13.07L159.62,179.2z"/>
			<path class="st40" d="M124.3,155.9H91.98c-1.02-0.01-1.87-0.79-1.98-1.81l-2.17-24.5c-0.1-0.9,0.55-1.7,1.45-1.8
				c0.07-0.01,0.14-0.01,0.21-0.01h32.32c1.02,0.02,1.87,0.79,1.98,1.81l2.17,24.5c0.1,0.9-0.55,1.7-1.45,1.8
				C124.44,155.9,124.37,155.9,124.3,155.9z"/>
			<path class="st41" d="M123.05,155.9H90.74c-1.02-0.01-1.87-0.79-1.98-1.81l-2.17-24.5c-0.1-0.9,0.55-1.7,1.45-1.8
				c0.07-0.01,0.14-0.01,0.21-0.01h32.32c1.02,0.01,1.87,0.79,1.98,1.81l2.17,24.5c0.1,0.9-0.55,1.7-1.45,1.8
				C123.19,155.9,123.12,155.9,123.05,155.9z"/>
			<path class="st42" d="M94.17,166.22h17.6l-1.32-1.37c-0.18-0.18-0.42-0.3-0.67-0.33l-6.81-0.74l5.22-10.13l-1.29-7.76h-6.32
				l-2.9,17.9l-2.43,0.61c-0.38,0.1-0.68,0.39-0.79,0.77L94.17,166.22z"/>
			<path class="st40" d="M97.28,166.22l3.15-19.44c0.08-0.51,0.53-0.89,1.04-0.89h3.99c0.58,0,1.06,0.47,1.06,1.06
				c0,0.11-0.02,0.21-0.05,0.31l-5.9,18.95L97.28,166.22z"/>
			<path class="st43" d="M115.8,227.8c-0.11,0.47-0.25,0.94-0.43,1.39c-0.53,1.27-1.36,2.41-2.09,3.57
				c-0.78,1.24-1.51,2.53-2.3,3.77c-0.41,0.63-0.86,1.12-1.62,1.23c-0.35,0.05-0.7,0.04-1.04-0.02c-0.21-0.04-0.43-0.18-0.63-0.2
				c-0.18-0.01-0.35,0.1-0.5,0.18c-0.57,0.32-1.09,0.72-1.65,1.05c-0.49,0.29-1.02,0.46-1.53,0.72c-0.16,0.08-0.38,0.18-0.44,0.37
				c-0.08,0.28,0.2,0.58,0.42,0.7c0.64,0.37,1.61,0.21,2.3,0.22c1.48,0.02,3.03,0.15,4.51-0.04c0.48-0.06,0.98-0.17,1.31-0.58
				c0.6-0.76,0.8-1.91,1.15-2.8c0.29-0.75,0.64-1.53,1.2-2.11c0.41-0.41,0.91-0.73,1.46-0.94c0.19-0.07,0.28-0.13,0.37,0.07
				c0.15,0.33,0.02,0.89,0.03,1.25c0.01,0.72,0.03,4.36,0.03,4.62c0,0.1-0.05,0.37,0,0.46c0.07,0.12-0.02,0.05,0.17,0.08
				c0.09,0.02,0.55,0.06,0.64,0c0.12-0.09,0.06-0.83,0.07-1.03c0.02-0.72,0.07-1.44,0.12-2.16c0.11-1.38,0.19-2.81,0.54-4.15
				c0.29-1.11,0.61-2.04,0.56-3.2c-0.03-0.62-0.12-1.27-0.41-1.82c-0.42-0.79-1.25-1.39-1.88-1.97L115.8,227.8z"/>
			<path class="st44" d="M148.3,123.75c0,0-3.42,3.59-8.07,2.36v0.65c0,0,4.77,1.07,8.56-2.57L148.3,123.75z"/>
			<circle class="st43" cx="139.75" cy="126.36" r="1.33"/>
			<path class="st35" d="M155.15,117.26c0,0-4.44-0.4-7.07,0.21c-0.59,0.14-1.43,0.05-2.38-0.21c-3.31-0.88-8.01-3.74-8.44-5.97
				c-0.53-2.78-1.53-1.55-1.59-1.47l0,0c0.3-5.07,6.36-5.19,6.36-5.19C153.88,104.34,155.15,117.26,155.15,117.26z"/>
			<path class="st45" d="M141.09,104.93c0,0,7.27,4.38,7.3,7.59c0.03,3.21-2.97,4.66-2.97,4.66l4.77,1.17c0,0,3.18-1.28,0.71-6.11
				S144.85,104.7,141.09,104.93z"/>
			<polygon class="st36" points="143.36,135.07 142.21,162.92 141.41,162.32 143.09,134.65 			"/>
			<path class="st37" d="M157.67,81.29h-37.69c-1.11,0-2.02,1.12-2.02,2.49v11.98c0,1.37,0.91,2.49,2.02,2.49h30.92l1.6,3.29
				l0.63-3.29h4.54c1.11,0,2.02-1.12,2.02-2.49V83.77C159.69,82.41,158.78,81.29,157.67,81.29z"/>
			<path class="st46" d="M120.51,85.38h32.32c0.13,0,0.24,0.11,0.24,0.24v0.85c0,0.13-0.11,0.24-0.24,0.24h-32.32
				c-0.13,0-0.24-0.11-0.24-0.24v-0.85C120.28,85.49,120.38,85.38,120.51,85.38z"/>
			<path class="st46" d="M120.51,87.92h32.32c0.13,0,0.24,0.11,0.24,0.24v0.85c0,0.13-0.11,0.24-0.24,0.24h-32.32
				c-0.13,0-0.24-0.11-0.24-0.24v-0.85C120.28,88.02,120.38,87.92,120.51,87.92z"/>
			<path class="st46" d="M120.51,90.45h19.67c0.13,0,0.24,0.11,0.24,0.24v0.85c0,0.13-0.11,0.24-0.24,0.24h-19.67
				c-0.13,0-0.24-0.11-0.24-0.24v-0.85C120.28,90.56,120.38,90.45,120.51,90.45z"/>
			<path class="st47" d="M88.22,56.15h37.69c1.11,0,2.02,1.12,2.02,2.49v11.98c0,1.37-0.91,2.49-2.02,2.49H94.99l-1.6,3.29
				l-0.63-3.29h-4.54c-1.11,0-2.02-1.12-2.02-2.49V58.63C86.2,57.27,87.11,56.15,88.22,56.15z"/>
			<path class="st46" d="M123.25,62.23H90.93c-0.13,0-0.24-0.11-0.24-0.24v-0.85c0-0.13,0.11-0.24,0.24-0.24h32.32
				c0.13,0,0.24,0.11,0.24,0.24v0.85C123.49,62.12,123.38,62.23,123.25,62.23z"/>
			<path class="st46" d="M123.25,64.77H90.93c-0.13,0-0.24-0.11-0.24-0.24v-0.85c0-0.13,0.11-0.24,0.24-0.24h32.32
				c0.13,0,0.24,0.11,0.24,0.24v0.85C123.49,64.66,123.38,64.77,123.25,64.77z"/>
			<path class="st46" d="M110.56,67.3H90.88c-0.13,0-0.24-0.11-0.24-0.24v-0.85c0-0.13,0.11-0.24,0.24-0.24h19.67
				c0.13,0,0.24,0.11,0.24,0.24v0.85C110.79,67.2,110.69,67.3,110.56,67.3z"/>
			<path class="st43" d="M140.23,104.91c0,0,9.76-0.76,11.29,13.83h2.54c0,0-1.4-12.92-10.14-14.11
				C143.92,104.63,141.54,104.16,140.23,104.91z"/>
			<path class="st44" d="M149.29,110.74c0,0,1.48-0.89,2.58,0.51c0,0,2.22,4.66,1.71,6.55c-0.51,1.89-2.11-0.41-2.11-0.41
				S151.07,114.21,149.29,110.74z"/>
			<path class="st43" d="M155.96,120.1c0,2.89-2.27,5.24-5.07,5.24c-1.13,0-2.23-0.39-3.11-1.11c-1.24-1.01-1.96-2.53-1.95-4.13
				c0-2.89,2.27-5.23,5.06-5.23c1.63,0.01,3.15,0.8,4.08,2.13C155.62,117.9,155.96,118.99,155.96,120.1z"/>
			<path class="st44" d="M155.96,120.1c0,2.89-2.27,5.24-5.07,5.24c-1.13,0-2.23-0.39-3.11-1.11l0,0c7.73,0.49,7.2-7.23,7.2-7.23
				l0,0C155.62,117.9,155.96,118.99,155.96,120.1z"/>
			<path class="st31" d="M146.4,116.52l-0.7,0.74c-3.31-0.88-8.01-3.74-8.44-5.97c-0.53-2.78-1.53-1.55-1.59-1.47
				c0.03-0.09,0.63-1.73,1.5-0.36C138.07,110.87,143.16,117.44,146.4,116.52z"/>
			<path class="st48" d="M135.51,125.98c-1.53-2.14-2.31-4.73-1.66-6.35c0.89-2.24,0.72-3.96,0.58-5.61
				c0.05,0.15,1.24,3.48,0.32,5.86C133.96,121.86,135.07,124.92,135.51,125.98z"/>
			<path class="st49" d="M143.32,132.1l0.04,2.81c0,0,3.52-1.38,6.35-4.24c0,0,0.22-0.41,0.44,0.2c0.22,0.61,1.65,2.57,2.06,2.79
				c0,0-5.48,3.4-7.05,4.89c0,0-0.63,0.37-0.61-0.49c0.02-0.86-1.19-2.99-1.19-2.99s-0.95,0.77-2.5,0.79c0,0-0.22,0.1,0-0.59
				c0.22-0.69,0.04-1.85,0.04-1.85s1.85-0.55,2.06-0.96C143.16,132.06,143.32,132.1,143.32,132.1z"/>
			<path class="st50" d="M149.33,161.44c0,0,0.97,1.18,0.27,4.64h17.85c0,0,1.56-0.43,0.6-4.1
				C168.05,161.98,159.85,166.64,149.33,161.44z"/>
			<path class="st25" d="M144.1,166.08c0,0-3.27-0.91-5.87-0.27c-2.03,0.5-3.96-0.27-5.28-0.53c-0.36-0.07-0.69-0.1-0.95-0.05
				c-1.22,0.21-4.74-1.38-1.47-3.61c3.27-2.23,4.89-2.05,6.05-1.56c1.16,0.49,5.57,2.5,7.49,1.98c0,0,0.04,0.16,0.09,0.43
				C144.33,163.3,144.59,165.06,144.1,166.08z"/>
			<path class="st51" d="M149.28,160.9c0,0,1.08,1.6,1.34,3.39c0.26,1.79,3.15,1.79,3.15,1.79h-4.17c0,0,0.97-2.34-0.65-5.41
				L149.28,160.9z"/>
			<path class="st52" d="M108.65,176.55c0,0,18.03-1.64,21.33,2.46c3.3,4.1,24.81-8.6,24.81-8.6h-28.83
				C125.97,170.41,120.08,169.98,108.65,176.55z"/>
			<path class="st29" d="M144.1,166.08c0,0-3.27-0.91-5.87-0.27c-2.03,0.5-3.96-0.27-5.28-0.53c3.09,0.31,5.12,0.06,5.12,0.06
				c5.43,0.12,6.08-2.76,6.1-2.86C144.33,163.3,144.59,165.06,144.1,166.08z"/>
			<path class="st26" d="M144.25,162.92c0,0,0.02,2.06-0.72,2.18s-2.12,0.53-2.12,0.53l2.69,0.45
				C144.1,166.08,144.62,165.3,144.25,162.92z"/>
			<path class="st44" d="M184.18,165.2c1.45-0.82,3.94-3.24,3.53-4.94c-0.1-0.44-0.4-0.8-0.8-0.99c-0.96-0.45-2.34,0.09-2.49,0.16
				l0.46,0.96c0.33-0.14,1.14-0.36,1.53-0.18c0.11,0.05,0.19,0.16,0.21,0.29c0.24,0.99-1.71,3.08-3.01,3.82L184.18,165.2z"/>
			<path class="st43" d="M184.95,158.38h-6.43c-0.11,0-0.21,0.09-0.21,0.2c0,0,0,0,0,0v4.88c0,1.42,1.15,2.57,2.57,2.57l0,0h1.7
				c1.42,0,2.57-1.15,2.57-2.57l0,0v-4.88C185.15,158.48,185.06,158.38,184.95,158.38z"/>
			<path class="st8" d="M180.54,146.59c0.06,0.05-0.48,0.45-0.84,1.38c-0.21,0.54-0.29,1.12-0.25,1.69c0.02,0.34,0.09,0.67,0.2,0.98
				c0.11,0.34,0.29,0.66,0.51,0.94c0.22,0.29,0.51,0.54,0.76,0.83c0.26,0.28,0.46,0.61,0.58,0.97c0.22,0.72,0.07,1.38-0.14,1.86
				c-0.16,0.39-0.4,0.73-0.7,1.02c-0.21,0.2-0.36,0.28-0.37,0.26c-0.02-0.02,0.09-0.14,0.26-0.36c0.24-0.31,0.43-0.66,0.56-1.02
				c0.16-0.46,0.26-1.06,0.06-1.65c-0.11-0.31-0.29-0.59-0.52-0.82c-0.24-0.26-0.53-0.51-0.78-0.84c-0.25-0.31-0.44-0.67-0.57-1.05
				c-0.12-0.35-0.19-0.72-0.2-1.09c-0.03-0.63,0.09-1.25,0.35-1.82c0.17-0.38,0.41-0.73,0.72-1.01
				C180.38,146.65,180.52,146.57,180.54,146.59z"/>
			<path class="st8" d="M183.73,145.67c0.02,0.02-0.08,0.16-0.27,0.42c-0.19,0.25-0.48,0.61-0.78,1.07s-0.61,1.05-0.72,1.76
				c-0.06,0.36-0.05,0.73,0.04,1.09c0.1,0.38,0.29,0.73,0.54,1.03c0.26,0.33,0.56,0.63,0.82,0.95c0.75,0.86,0.93,2.08,0.49,3.13
				c-0.17,0.44-0.45,0.82-0.8,1.12c-0.09,0.08-0.2,0.15-0.31,0.21c-0.08,0.04-0.12,0.05-0.13,0.04s0.02-0.05,0.08-0.11
				c0.09-0.08,0.17-0.16,0.25-0.25c0.29-0.32,0.51-0.7,0.65-1.11c0.21-0.6,0.21-1.24,0.03-1.85c-0.12-0.35-0.31-0.67-0.55-0.95
				c-0.25-0.3-0.55-0.6-0.83-0.95c-0.29-0.34-0.5-0.75-0.61-1.18c-0.09-0.41-0.1-0.83-0.02-1.24c0.14-0.78,0.51-1.4,0.84-1.86
				c0.27-0.36,0.57-0.7,0.89-1.01C183.57,145.76,183.71,145.65,183.73,145.67z"/>
			<path class="st53" d="M78.61,150.94c2.06-0.89,2.38,1.41,1.47,3.22c-0.62,1.23-2.84,4.36-4.34,7.03h-1.71
				C74.61,157.15,76.48,151.86,78.61,150.94z"/>
			<path class="st54" d="M74.64,161.19c1.46-4.89,4.82-9.5,4.83-9.52c0.03-0.04,0.08-0.05,0.12-0.02c0,0,0,0,0,0
				c0.04,0.03,0.05,0.08,0.02,0.12c-0.01,0.02-3.34,4.58-4.79,9.42H74.64z"/>
			<path class="st55" d="M74.27,143.69c-2.07-2.03-3.49,0.54-3.2,3.13c0.27,2.45,2.66,10.87,2.38,14.41h0.82
				C76.13,156.69,76.92,146.29,74.27,143.69z"/>
			<path class="st54" d="M73.97,161.22c1.72-7.15-1.04-17.04-1.05-17.08c-0.02-0.06-0.08-0.1-0.14-0.09
				c-0.06,0.01-0.1,0.07-0.08,0.13c0,0,0,0,0,0c0.01,0.03,2.78,9.94,1.04,17.02L73.97,161.22z"/>
			<path class="st56" d="M69.17,148.18c-2.17-1.04-2.59,1.4-1.67,3.38c0.76,1.64,4.02,6.44,5.32,9.56l1.07-0.04
				C73.78,156.71,71.73,149.4,69.17,148.18z"/>
			<path class="st54" d="M73.51,161.09c-0.98-5.87-5.26-12.15-5.28-12.17c-0.03-0.04-0.09-0.06-0.13-0.03
				c-0.04,0.03-0.06,0.09-0.03,0.13c0,0,0,0,0,0c0.02,0.02,4.26,6.26,5.25,12.07L73.51,161.09z"/>
			<path class="st32" d="M71.19,160.32h6.39c0.19,0,0.35,0.16,0.35,0.35l0,0v1.58c0,0.19-0.16,0.35-0.35,0.35l0,0h-6.39
				c-0.19,0-0.35-0.16-0.35-0.35l0,0v-1.58C70.84,160.47,71,160.32,71.19,160.32z"/>
			<polygon class="st57" points="76.48,161.6 72.28,161.6 71.19,162.59 72.08,166.04 74.38,166.04 76.68,166.04 77.57,162.59 			"/>
			<polygon class="st58" points="71.19,162.59 71.37,163.3 77.39,163.3 77.57,162.59 			"/>
			<path class="st18" d="M147.76,193.21h4.12l6.79-12.2l8.09,0.32l-7.96,13.47c-0.2,0.4-0.61,0.65-1.05,0.64h-10V193.21z"/>
			<path class="st19" d="M147.18,193.21h3.22l7.58-12.93c0.21-0.35,0.59-0.57,1-0.56l0,0h6.75c0.62-0.03,1.15,0.44,1.18,1.05
				c0.03,0.62-0.44,1.15-1.05,1.18c-0.04,0-0.08,0-0.13,0h-6.08l-7.54,12.85c-0.2,0.4-0.61,0.65-1.05,0.64h-3.9L147.18,193.21z"/>
			<polygon class="st20" points="199.47,169.95 203.44,241.85 201.68,241.85 196.35,173.34 166.47,173.34 161.14,241.85 
				159.37,241.85 163.34,169.95 			"/>
			<path class="st19" d="M181.22,166.04H65.82c-1.02,0-1.85,0.98-1.85,2.18l0,0c0,1.2,0.83,2.18,1.85,2.18h115.4
				c1.02,0,1.85-0.98,1.85-2.18l0,0C183.08,167.02,182.24,166.04,181.22,166.04z"/>
			<path class="st16" d="M201.03,166.04H152.2c-1.02,0-1.85,0.98-1.85,2.18l0,0c0,1.2,0.83,2.18,1.85,2.18h48.83
				c1.02,0,1.85-0.98,1.85-2.18l0,0C202.88,167.02,202.05,166.04,201.03,166.04z"/>
			<path class="st47" d="M67.94,70.2c-0.46-0.41-0.78-0.92-1.08-1.45c-0.71-1.25-1.05-2.69-0.96-4.13c0.17-3.18,2.27-5.92,5.29-6.92
				c0.91-0.31,1.86-0.44,2.82-0.38c1.81,0.12,3.4,0.77,4.76,2.01c1.27,1.13,2.12,2.67,2.4,4.35c0.38,2.21-0.14,4.23-1.48,6.03
				c-0.12,0.18-0.27,0.35-0.45,0.49C79.04,69.55,78.6,69,78,68.68c-0.49-0.27-1-0.51-1.53-0.7c-0.29-0.1-0.56-0.24-0.87-0.27
				c-0.39-0.32-0.45-0.75-0.43-1.23c0.01-0.19,0.06-0.25,0.25-0.23c0.52,0.05,0.84-0.23,1.03-0.68c0.17-0.41,0.27-0.84,0.31-1.29
				c0.08-0.85,0.08-1.71,0-2.56c0.36-0.21,0.63-0.48,0.71-0.92c0.11-0.65-0.34-1.32-0.92-1.27c-0.35,0.03-0.54-0.04-0.8-0.29
				c-0.55-0.54-1.62-0.51-2.22-0.02c-0.07,0.06-0.12,0.09-0.21,0.03c-0.24-0.16-0.54-0.23-0.83-0.19c-0.58,0.06-1.09,0.28-1.39,0.82
				c-0.12,0.23-0.19,0.46-0.38,0.67c-0.38,0.42-0.24,1,0.24,1.32c0.06,0.04,0.11,0.07,0.12,0.15c0.1,1.06,0.63,1.98,0.92,2.99
				c0,0.55-0.02,1.11,0.01,1.66c0.04,0.4-0.13,0.78-0.43,1.04c-0.06-0.03-0.12,0.01-0.17,0.02c-0.53,0.17-1.04,0.37-1.54,0.6
				C69,68.72,68.22,69.2,67.94,70.2z"/>
			<path class="st43" d="M75.6,67.7c0.31,0.03,0.58,0.17,0.87,0.27c0.53,0.19,1.04,0.43,1.53,0.7c0.6,0.32,1.04,0.87,1.24,1.52
				c-0.38,0.51-0.88,0.88-1.39,1.22c-1.39,0.94-3.05,1.39-4.73,1.27c-1.99-0.13-3.7-0.92-5.08-2.37c-0.03-0.04-0.06-0.08-0.08-0.13
				c0.27-1,1.05-1.48,1.91-1.88c0.5-0.23,1.02-0.43,1.54-0.6c0.06-0.02,0.11-0.05,0.17-0.02c0.1,0.27,0.33,0.41,0.57,0.52
				c0.92,0.41,1.98,0.41,2.9,0C75.28,68.13,75.51,67.98,75.6,67.7z M73.39,71.58c-0.02,0.14,0.07,0.19,0.19,0.2
				c0.1,0.01,0.19-0.05,0.2-0.15c0-0.01,0-0.02,0-0.03c0.01-0.14-0.08-0.21-0.22-0.22C73.42,71.37,73.39,71.45,73.39,71.58z
				 M73.39,70.58c0,0.12,0.06,0.19,0.19,0.18c0.13-0.01,0.21-0.07,0.21-0.2c0.01-0.1-0.07-0.19-0.17-0.2c-0.01,0-0.03,0-0.04,0
				c-0.11,0-0.19,0.09-0.19,0.2C73.39,70.56,73.39,70.57,73.39,70.58z M73.59,69.33c-0.11,0-0.2,0.08-0.2,0.19
				c-0.01,0.11,0.07,0.21,0.18,0.22c0.11,0.01,0.21-0.07,0.22-0.18c0-0.01,0-0.02,0-0.03C73.79,69.41,73.7,69.33,73.59,69.33
				L73.59,69.33z"/>
			<path class="st25" d="M75.6,67.7c-0.09,0.27-0.32,0.42-0.56,0.52c-0.92,0.41-1.98,0.41-2.9,0c-0.24-0.1-0.47-0.25-0.57-0.52
				c0.31-0.25,0.47-0.64,0.43-1.04C71.98,66.12,72,65.56,72,65.01c0.19-0.14,0.41-0.26,0.49-0.51c0.04-0.12,0.07-0.25-0.11-0.31
				c-0.51-0.2-0.8-0.74-0.68-1.28c0.06-0.3,0.35-0.5,0.64-0.44c0.1,0.02,0.19,0.07,0.27,0.14c0.06,0.06,0.12,0.13,0.18,0.18
				c0.15,0.12,0.3,0.3,0.51,0.19c0.21-0.11,0.14-0.33,0.13-0.51c-0.03-0.41-0.01-0.43,0.41-0.44c0.98-0.01,1.97-0.02,2.92-0.31
				c0.08,0.85,0.08,1.71,0,2.56c-0.04,0.44-0.14,0.88-0.31,1.29c-0.2,0.45-0.51,0.72-1.03,0.68c-0.19-0.02-0.24,0.04-0.25,0.23
				C75.15,66.95,75.22,67.38,75.6,67.7z"/>
			<path class="st59" d="M76.76,61.72c-0.95,0.3-1.93,0.3-2.92,0.31c-0.42,0-0.44,0.03-0.41,0.44c0.01,0.18,0.08,0.41-0.13,0.51
				c-0.21,0.11-0.36-0.08-0.51-0.19c-0.07-0.05-0.12-0.12-0.18-0.18c-0.22-0.21-0.57-0.19-0.78,0.03c-0.07,0.08-0.12,0.17-0.14,0.27
				c-0.11,0.54,0.18,1.07,0.68,1.28c0.18,0.07,0.14,0.19,0.11,0.31c-0.08,0.25-0.29,0.37-0.49,0.51c-0.29-1-0.82-1.93-0.92-2.99
				c-0.01-0.08-0.06-0.11-0.12-0.15c-0.48-0.32-0.63-0.89-0.24-1.32c0.19-0.21,0.26-0.44,0.38-0.67c0.29-0.54,0.8-0.76,1.39-0.82
				c0.29-0.04,0.59,0.02,0.83,0.19c0.09,0.07,0.14,0.03,0.21-0.03c0.6-0.49,1.67-0.52,2.22,0.02c0.26,0.25,0.45,0.32,0.8,0.29
				c0.58-0.05,1.04,0.62,0.92,1.27C77.39,61.24,77.12,61.51,76.76,61.72z"/>
			<g class="st0">
				<path class="st47" d="M276.21,223.71c0,0,3.01-13.69,8.91-12.32S281.03,221.69,276.21,223.71z"/>
				<path class="st60" d="M276.92,218.84c0,0,0.64-6.54,3.08-12.06c1.86-4.2,5.26-9.36,7.57-7.44c3.56,2.97-0.12,7.08-1.8,9.24
					C283.98,210.89,281.28,213.2,276.92,218.84z"/>
				<path class="st60" d="M273.97,216.15c0,0-6.79-15.01-6.79-24.12s8.34-5.64,8.98,0.51C276.8,198.7,275.51,210.76,273.97,216.15z"
					/>
				<path class="st47" d="M272.43,219.48c0,0,0.38-10.65-1.54-16.93c-1.92-6.29-7.06-5.01-7.7-2.31
					C262.56,202.94,263.58,209.35,272.43,219.48z"/>
				<path class="st47" d="M277.09,211.24c0,0-1.52-10.55-0.04-17.02c1.48-6.47,7.28-5.78,8.26-3.17
					C286.3,193.65,285.83,200.15,277.09,211.24z"/>
				
					<linearGradient id="SVGID_1_" gradientUnits="userSpaceOnUse" x1="266.4136" y1="89.8603" x2="273.8749" y2="89.8603" gradientTransform="matrix(1 0 0 -1 0 302)">
					<stop  offset="0" style="stop-color:#F3F6FB;stop-opacity:0"/>
					<stop  offset="0.98" style="stop-color:#E2EDF9"/>
				</linearGradient>
				<path class="st61" d="M273.58,230.3l-0.17-0.02c0.03-0.91,0.06-1.81,0.08-2.68c-0.13-3.98-1.24-12.44-7.07-25.57
					c-0.01-0.05,0.02-0.1,0.07-0.11c0.04-0.01,0.07,0.01,0.1,0.04c5.03,11.31,6.55,19.17,6.96,23.7c0.6-23.47-0.68-31.5-0.7-31.58
					c0-0.05,0.04-0.09,0.09-0.09c0.04,0,0.07,0.02,0.08,0.06c0.01,0.09,1.37,8.57,0.65,33.57
					C273.72,229.38,273.58,230.27,273.58,230.3z"/>
				
					<linearGradient id="SVGID_2_" gradientUnits="userSpaceOnUse" x1="274.6851" y1="80.4869" x2="283.0187" y2="80.4869" gradientTransform="matrix(1 0 0 -1 0 302)">
					<stop  offset="0" style="stop-color:#F3F6FB;stop-opacity:0"/>
					<stop  offset="0.98" style="stop-color:#E2EDF9"/>
				</linearGradient>
				<path class="st62" d="M274.77,228.27h-0.01c-0.05-0.01-0.08-0.05-0.08-0.1c0.01-0.06,0.82-5.98,8.18-13.39
					c0.04-0.03,0.1-0.02,0.12,0.02c0.02,0.03,0.02,0.07,0,0.1c-7.32,7.37-8.13,13.23-8.14,13.29
					C274.85,228.23,274.82,228.27,274.77,228.27z"/>
				<path class="st60" d="M272.55,223.18c0,0-2.29-13.83-8.24-12.78S267.84,220.9,272.55,223.18z"/>
				
					<linearGradient id="SVGID_3_" gradientUnits="userSpaceOnUse" x1="266.2169" y1="81.1721" x2="273.8344" y2="81.1721" gradientTransform="matrix(1 0 0 -1 0 302)">
					<stop  offset="0" style="stop-color:#F3F6FB;stop-opacity:0"/>
					<stop  offset="0.98" style="stop-color:#E2EDF9"/>
				</linearGradient>
				<path class="st63" d="M273.75,227.8c-0.05,0-0.09-0.04-0.09-0.08c0-0.06-0.5-5.96-7.42-13.7c-0.04-0.03-0.05-0.09-0.01-0.13
					c0.03-0.04,0.09-0.05,0.13-0.01c0.01,0.01,0.02,0.01,0.02,0.02c6.96,7.8,7.46,13.75,7.46,13.81
					C273.83,227.75,273.8,227.79,273.75,227.8L273.75,227.8z"/>
				
					<linearGradient id="SVGID_4_" gradientUnits="userSpaceOnUse" x1="274.302" y1="88.5008" x2="284.1967" y2="88.5008" gradientTransform="matrix(1 0 0 -1 0 302)">
					<stop  offset="0" style="stop-color:#F3F6FB;stop-opacity:0"/>
					<stop  offset="0.98" style="stop-color:#E2EDF9"/>
				</linearGradient>
				<path class="st64" d="M274.3,232.85c0-0.11,0-0.26,0-0.44c0.12-9.59,2.12-20.37,7.07-38.22c0.02-0.04,0.07-0.06,0.12-0.04
					c0.03,0.02,0.06,0.05,0.05,0.09c-4.52,16.29-6.58,26.69-6.99,35.66c0.78-5.84,3.47-18.3,9.48-26c0.04-0.03,0.09-0.03,0.13,0
					c0.03,0.03,0.03,0.07,0.01,0.1c-7.11,9.1-9.55,24.87-9.7,28.39c0,0.15,0,0.3,0,0.45L274.3,232.85z"/>
				<path class="st11" d="M268.37,236.14c0,0.73,2.7,1.33,6.04,1.33c3.34,0,6.04-0.59,6.04-1.33c0-0.73-2.7-1.33-6.04-1.33
					C271.07,234.82,268.37,235.41,268.37,236.14z"/>
				<path class="st3" d="M278.71,228.93c0,2.93-0.76,5.51-1.91,7.04h-4.97c-1.16-1.54-1.91-4.12-1.91-7.04
					c0-0.73,0.05-1.47,0.15-2.19h8.49C278.66,227.46,278.71,228.19,278.71,228.93z"/>
				<path class="st65" d="M278.71,228.93c0,2.93-0.76,5.51-1.91,7.04h-4.97c-1.16-1.54-1.91-4.12-1.91-7.04
					c0-0.73,0.05-1.47,0.15-2.19h8.49C278.66,227.46,278.71,228.19,278.71,228.93z"/>
				<polygon class="st3" points="268.74,226.6 279.78,226.4 279.91,228.42 268.8,228.69 				"/>
			</g>
		</g>
	</g>
</g>
</svg>
