<svg id="Capa_1" enable-background="new 0 0 512 512" height="512" viewBox="0 0 512 512" width="512" xmlns="http://www.w3.org/2000/svg" xmlns:xlink="http://www.w3.org/1999/xlink"><linearGradient id="SVGID_1_" gradientUnits="userSpaceOnUse" x1="261.764" x2="261.764" y1="406.003" y2="45.997"><stop offset="0" stop-color="#ffbef9"/><stop offset="1" stop-color="#fff1ff"/></linearGradient><linearGradient id="SVGID_2_" gradientUnits="userSpaceOnUse" x1="241" x2="241" y1="466.003" y2="136.003"><stop offset="0" stop-color="#a93aff"/><stop offset="1" stop-color="#ff81ff"/></linearGradient><g id="Wallet_2_"><g><g><path d="m420 151.003v-90c0-4.57-2.08-8.892-5.654-11.733s-8.232-3.926-12.715-2.886l-390 90c-7.442 1.714 393.369 29.619 393.369 29.619 8.291 0 15-6.709 15-15zm77 75h-15l-77-30-135 105 135 105 77-30h15c8.401 0 15-6.601 15-15v-120c0-8.401-6.599-15-15-15z" fill="url(#SVGID_1_)"/></g></g><g><g><path d="m482 151.003c0-8.401-6.599-15-15-15h-452c-8.401 0-15 6.599-15 15v300c0 8.399 6.599 15 15 15h452c8.401 0 15-6.601 15-15v-75h-77c-41.4 0-75-33.6-75-75s33.6-75 75-75h77zm-92 150c0 8.284 6.716 15 15 15s15-6.716 15-15-6.716-15-15-15-15 6.716-15 15z" fill="url(#SVGID_2_)"/></g></g></g></svg>