<?xml version="1.0" encoding="utf-8"?>
<!-- Generator: Adobe Illustrator 24.0.0, SVG Export Plug-In . SVG Version: 6.00 Build 0)  -->
<svg version="1.1" id="Layer_1" xmlns="http://www.w3.org/2000/svg" xmlns:xlink="http://www.w3.org/1999/xlink" x="0px" y="0px"
	 viewBox="0 0 100 50" style="enable-background:new 0 0 100 50;" xml:space="preserve">
<style type="text/css">
	.st0{fill-rule:evenodd;clip-rule:evenodd;fill:#28648A;}
	.st1{fill-rule:evenodd;clip-rule:evenodd;fill:#EC1C24;}
	.st2{fill:#28648A;}
</style>
<path class="st0" d="M42.4,28.3h-5.6v-12l-7,9.6h-3.6l-7-9.6v12l-5.6,3.2V9.6h6.4l8.1,11.2L36,9.6h6.4V28.3z M51.6,28.3h5.6v-12
	l7,9.6h3.6l7-9.6v12l5.6,3.2V9.6h-6.4l-8.1,11.2L58,9.6h-6.4V28.3z M11.5,34.1H9.7l-2.3,3.2l-2.3-3.2H3.2v6.3l1.6-0.9v-3.4l2,2.8h1
	l2-2.8v3.4h1.6V34.1z M17.8,34.1l-1.7,1.7l-1.7-1.7h-1.9l2.8,2.8v2.5l1.6,0.9V37l2.8-2.8H17.8z M26.7,33.2L25,34.1v5.4l1.6,0V33.2z
	 M34.5,33.2l-1.6,0.9v3.2L29,34.1h-1.1v5.4l1.6,0v-3.1l3.8,3.1h1.2V33.2z M40.4,38.3h-3.1v-0.9h3.1l0.4,0.5L40.4,38.3z M40.4,36.3
	h-3.1v-0.9h3.1l0.4,0.5L40.4,36.3z M41.8,36.8l0.8-1l-1.2-1.7h-5.7v5.4h5.7l1.2-1.7L41.8,36.8z M54.6,36.8l2.7-2.7h-1.9l-1.7,1.7
	l-1.7-1.7H50l2.7,2.7L50,39.5h1.9l1.7-1.7l1.7,1.7h1.9L54.6,36.8z M72.2,34.1v5.4h5l1.2-1.2h-4.6v-0.9h2.9l1.1-1.1h-4v-0.9h3.6
	l1.2-1.2H72.2z M83.7,38.3h-2.7v-3h2.7l0.8,1.5L83.7,38.3z M84.8,34.1h-5.4v5.4h5.4l1.5-2.7L84.8,34.1z M89,33.2l-1.6,0.9v5.4l1.6,0
	V33.2z M95.1,36.8h-3.3v-1.4h3.3V36.8z M95.1,36.8 M96.7,35.3l-1.2-1.2h-4.1l-1.2,1.2v4.2l1.6,0V38h3.3v1.6l1.6,0.9V35.3z M63,39.4
	h1.6V36l2,2.8h1l2-2.8v3.4l1.6,0.9v-6.3h-1.8l-2.3,3.2l-2.3-3.2H63V39.4z"/>
<path class="st1" d="M46.8,31.4h-0.4l-2.1-16.2c-0.2-1.3-0.3-2.4-0.3-3.1c0-1,0.2-1.7,0.7-2.2c0.5-0.5,1.2-0.8,2-0.8
	c0.8,0,1.5,0.3,2,0.8c0.5,0.5,0.7,1.2,0.7,2.1c0,0.6-0.1,1.6-0.3,2.8L46.8,31.4z M46.8,33.9c-1.7,0-3,1.3-3,3c0,1.7,1.3,3,3,3
	c1.7,0,3-1.3,3-3C49.8,35.2,48.4,33.9,46.8,33.9z"/>
<path class="st2" d="M90.2,4.2c-2.3,0-4.2,1.9-4.2,4.2s1.9,4.2,4.2,4.2s4.2-1.9,4.2-4.2S92.6,4.2,90.2,4.2z M90.2,11.8
	c-1.9,0-3.4-1.5-3.4-3.4c0-1.9,1.5-3.4,3.4-3.4c1.9,0,3.4,1.5,3.4,3.4C93.6,10.3,92.1,11.8,90.2,11.8z M92.1,10.4
	c-0.9-1.6-0.9-1.6-0.9-1.6c0.4-0.2,0.7-0.7,0.7-1.2c0-0.9-0.5-1.4-1.7-1.4h-1.3c-0.1,0-0.2,0.1-0.2,0.2v4.2c0,0.1,0.1,0.2,0.2,0.2
	h0.7c0.1,0,0.2-0.1,0.2-0.2V9.1h0.5l0.8,1.5c0,0.1,0.1,0.1,0.2,0.1h0.7C92.1,10.7,92.2,10.5,92.1,10.4L92.1,10.4z M90.3,8.1h-0.6V7
	h0.5c0.5,0,0.7,0.2,0.7,0.5C90.8,7.9,90.6,8.1,90.3,8.1z"/>
</svg>
