<?xml version="1.0" encoding="utf-8"?>
<!-- Generator: Adobe Illustrator 19.0.0, SVG Export Plug-In . SVG Version: 6.00 Build 0)  -->
<svg version="1.1" id="Layer_1" xmlns="http://www.w3.org/2000/svg" xmlns:xlink="http://www.w3.org/1999/xlink" x="0px" y="0px"
	 viewBox="0 0 200 50" style="enable-background:new 0 0 200 50;" xml:space="preserve">
<style type="text/css">
	.st0{fill:#0857A0;}
	.st1{fill:#1A89CA;}
	.st2{fill:#231F20;}
	.st3{fill-rule:evenodd;clip-rule:evenodd;fill:#BBBBBB;}
	.st4{fill-rule:evenodd;clip-rule:evenodd;fill:#CFD1D2;}
	.st5{fill-rule:evenodd;clip-rule:evenodd;fill:#FFFFFF;}
	.st6{fill:#1785C8;}
	.st7{fill:#0A529D;}
</style>
<g id="XMLID_94_">
	<g id="XMLID_1_">
		<path id="XMLID_91_" class="st0" d="M78.9,9.2L81.3,9c0,0.4,0.2,0.7,0.3,0.9c0.3,0.3,0.6,0.5,1.1,0.5c0.4,0,0.6-0.1,0.8-0.3
			c0.2-0.2,0.3-0.4,0.3-0.6c0-0.2-0.1-0.4-0.3-0.6c-0.2-0.2-0.6-0.3-1.3-0.5c-1.1-0.3-1.9-0.6-2.4-1c-0.5-0.4-0.7-1-0.7-1.7
			c0-0.4,0.1-0.9,0.4-1.3c0.2-0.4,0.6-0.7,1.1-0.9c0.5-0.2,1.2-0.3,2-0.3c1.1,0,1.9,0.2,2.4,0.6c0.6,0.4,0.9,1.1,1,2L83.7,6
			c-0.1-0.4-0.2-0.7-0.4-0.8c-0.2-0.2-0.5-0.3-0.8-0.3c-0.3,0-0.5,0.1-0.7,0.2c-0.1,0.1-0.2,0.3-0.2,0.5c0,0.1,0.1,0.3,0.2,0.4
			c0.1,0.1,0.4,0.2,0.9,0.3C83.7,6.5,84.5,6.7,85,7c0.5,0.3,0.8,0.6,1,1c0.2,0.4,0.3,0.8,0.3,1.3c0,0.6-0.1,1.1-0.4,1.5
			c-0.3,0.5-0.7,0.8-1.2,1.1c-0.5,0.2-1.2,0.4-2,0.4c-1.4,0-2.4-0.3-2.9-0.8C79.3,10.8,79,10,78.9,9.2"/>
		<path id="XMLID_90_" class="st0" d="M86.8,3.4h2.3v3.2C89.4,6.2,89.7,6,90,5.9c0.3-0.1,0.7-0.2,1.1-0.2c0.6,0,1.1,0.2,1.5,0.6
			c0.4,0.4,0.5,1,0.5,1.8v4h-2.3V8.6c0-0.4-0.1-0.7-0.2-0.8c-0.1-0.2-0.3-0.2-0.6-0.2c-0.3,0-0.5,0.1-0.7,0.3
			c-0.2,0.2-0.3,0.6-0.3,1.2v3h-2.3V3.4z"/>
		<path id="XMLID_87_" class="st0" d="M97.8,9.1c-0.3,0.1-0.6,0.2-1,0.3c-0.5,0.1-0.8,0.3-0.9,0.4c-0.1,0.1-0.2,0.3-0.2,0.4
			c0,0.2,0.1,0.3,0.2,0.5c0.1,0.1,0.3,0.2,0.5,0.2c0.3,0,0.5-0.1,0.7-0.2c0.2-0.1,0.4-0.3,0.5-0.5c0.1-0.2,0.1-0.4,0.1-0.7V9.1z
			 M95.9,7.8l-2.2-0.2c0.1-0.4,0.2-0.7,0.4-0.9c0.2-0.2,0.4-0.4,0.7-0.6c0.2-0.1,0.5-0.2,0.9-0.3c0.4-0.1,0.8-0.1,1.2-0.1
			c0.7,0,1.2,0,1.6,0.1c0.4,0.1,0.8,0.3,1,0.5c0.2,0.2,0.3,0.4,0.5,0.7c0.1,0.3,0.2,0.6,0.2,0.9v2.8c0,0.3,0,0.5,0.1,0.7
			c0,0.2,0.1,0.4,0.2,0.6h-2.1c-0.1-0.2-0.1-0.3-0.2-0.4c0-0.1,0-0.2-0.1-0.4c-0.3,0.3-0.6,0.5-0.9,0.6c-0.4,0.2-0.9,0.3-1.4,0.3
			c-0.7,0-1.2-0.2-1.6-0.5c-0.4-0.3-0.6-0.8-0.6-1.3c0-0.5,0.1-0.9,0.4-1.2c0.3-0.3,0.8-0.5,1.5-0.7c0.9-0.2,1.4-0.3,1.7-0.4
			c0.3-0.1,0.5-0.2,0.8-0.3c0-0.3-0.1-0.5-0.2-0.6c-0.1-0.1-0.3-0.2-0.6-0.2c-0.4,0-0.7,0.1-0.8,0.2C96.1,7.3,96,7.5,95.9,7.8"/>
		<path id="XMLID_84_" class="st0" d="M103.2,8.9c0,0.5,0.1,0.9,0.3,1.1c0.2,0.2,0.5,0.4,0.8,0.4c0.3,0,0.5-0.1,0.7-0.3
			c0.2-0.2,0.3-0.6,0.3-1.2c0-0.5-0.1-0.9-0.3-1.1c-0.2-0.2-0.4-0.4-0.7-0.4c-0.3,0-0.5,0.1-0.7,0.4C103.3,8,103.2,8.4,103.2,8.9
			 M100.9,14.4V5.8h2.1v0.9c0.3-0.4,0.6-0.6,0.8-0.8c0.3-0.2,0.7-0.3,1.1-0.3c0.8,0,1.4,0.3,1.8,1c0.4,0.6,0.7,1.4,0.7,2.4
			c0,1-0.2,1.8-0.7,2.4c-0.5,0.5-1.1,0.8-1.8,0.8c-0.4,0-0.7-0.1-1-0.2c-0.3-0.1-0.5-0.3-0.8-0.6v3H100.9z"/>
		<path id="XMLID_81_" class="st0" d="M109.8,8.9c0,0.6,0.1,1,0.3,1.2c0.2,0.3,0.5,0.4,0.8,0.4c0.3,0,0.6-0.1,0.8-0.4
			c0.2-0.3,0.3-0.7,0.3-1.3c0-0.5-0.1-0.9-0.3-1.2c-0.2-0.3-0.5-0.4-0.8-0.4c-0.3,0-0.6,0.1-0.8,0.4C110,8,109.8,8.4,109.8,8.9
			 M107.6,8.9c0-1,0.3-1.7,0.9-2.3c0.6-0.6,1.4-0.9,2.5-0.9c1.2,0,2.1,0.4,2.7,1.1c0.5,0.6,0.7,1.3,0.7,2.2c0,1-0.3,1.7-0.9,2.4
			c-0.6,0.6-1.4,0.9-2.5,0.9c-1,0-1.7-0.3-2.3-0.8C107.9,10.8,107.6,9.9,107.6,8.9"/>
		<path id="XMLID_78_" class="st0" d="M116.8,8.9c0,0.6,0.1,1,0.3,1.2c0.2,0.3,0.5,0.4,0.8,0.4c0.3,0,0.6-0.1,0.8-0.4
			c0.2-0.3,0.3-0.7,0.3-1.3c0-0.5-0.1-0.9-0.3-1.2c-0.2-0.3-0.5-0.4-0.8-0.4c-0.3,0-0.6,0.1-0.8,0.4C116.9,8,116.8,8.4,116.8,8.9
			 M114.5,8.9c0-1,0.3-1.7,0.9-2.3c0.6-0.6,1.4-0.9,2.5-0.9c1.2,0,2.1,0.4,2.7,1.1c0.5,0.6,0.7,1.3,0.7,2.2c0,1-0.3,1.7-0.9,2.4
			c-0.6,0.6-1.4,0.9-2.5,0.9c-1,0-1.7-0.3-2.3-0.8C114.9,10.8,114.5,9.9,114.5,8.9"/>
		<path id="XMLID_77_" class="st0" d="M121.8,5.8h2.1v1c0.2-0.4,0.4-0.7,0.6-0.9c0.2-0.2,0.5-0.2,0.8-0.2c0.3,0,0.7,0.1,1.1,0.3
			l-0.7,1.7c-0.3-0.1-0.5-0.2-0.6-0.2c-0.3,0-0.5,0.1-0.7,0.4c-0.2,0.4-0.4,1-0.4,2V12h-2.3V5.8z"/>
		<path id="XMLID_74_" class="st0" d="M126.8,3.4h2.3v1.6h-2.3V3.4z M126.8,5.8h2.3v6c0,0.8-0.1,1.3-0.2,1.6
			c-0.1,0.3-0.3,0.6-0.6,0.8s-0.7,0.3-1.2,0.3c-0.4,0-1-0.1-1.6-0.2l0.3-1.7c0.2,0,0.3,0.1,0.4,0.1c0.2,0,0.3-0.1,0.4-0.2
			c0.1-0.1,0.2-0.4,0.2-0.8V5.8z"/>
		<path id="XMLID_71_" class="st0" d="M129.9,5.8h2.3V12h-2.3V5.8z M129.9,3.4h2.3V5h-2.3V3.4z"/>
		<path id="XMLID_68_" class="st1" d="M138.8,7.1h0.6c0.5,0,0.8-0.1,1-0.3c0.2-0.2,0.3-0.4,0.3-0.7c0-0.3-0.1-0.5-0.3-0.7
			c-0.2-0.2-0.5-0.3-1-0.3h-0.7V7.1z M136.2,3.4h4.2c0.9,0,1.6,0.2,2.1,0.7c0.5,0.5,0.7,1.1,0.7,2c0,0.9-0.2,1.5-0.7,2
			c-0.5,0.5-1.3,0.7-2.3,0.7h-1.4V12h-2.5V3.4z"/>
		<path id="XMLID_65_" class="st1" d="M147.5,9.1c-0.3,0.1-0.6,0.2-1,0.3c-0.5,0.1-0.8,0.3-0.9,0.4c-0.1,0.1-0.2,0.3-0.2,0.4
			c0,0.2,0.1,0.3,0.2,0.5c0.1,0.1,0.3,0.2,0.6,0.2c0.3,0,0.5-0.1,0.7-0.2c0.2-0.1,0.4-0.3,0.5-0.5c0.1-0.2,0.1-0.4,0.1-0.7V9.1z
			 M145.5,7.8l-2.2-0.2c0.1-0.4,0.2-0.7,0.4-0.9c0.2-0.2,0.4-0.4,0.7-0.6c0.2-0.1,0.5-0.2,0.9-0.3c0.4-0.1,0.8-0.1,1.2-0.1
			c0.7,0,1.2,0,1.6,0.1c0.4,0.1,0.8,0.3,1,0.5c0.2,0.2,0.3,0.4,0.5,0.7c0.1,0.3,0.2,0.6,0.2,0.9v2.8c0,0.3,0,0.5,0.1,0.7
			c0,0.2,0.1,0.4,0.2,0.6h-2.1c-0.1-0.2-0.1-0.3-0.2-0.4c0-0.1,0-0.2-0.1-0.4c-0.3,0.3-0.6,0.5-0.9,0.6c-0.4,0.2-0.9,0.3-1.4,0.3
			c-0.7,0-1.2-0.2-1.6-0.5c-0.4-0.3-0.6-0.8-0.6-1.3c0-0.5,0.1-0.9,0.4-1.2c0.3-0.3,0.8-0.5,1.5-0.7c0.9-0.2,1.4-0.3,1.7-0.4
			c0.3-0.1,0.5-0.2,0.8-0.3c0-0.3-0.1-0.5-0.2-0.6c-0.1-0.1-0.3-0.2-0.6-0.2c-0.4,0-0.7,0.1-0.8,0.2C145.8,7.3,145.6,7.5,145.5,7.8"
			/>
		<rect id="XMLID_64_" x="150.5" y="3.4" class="st1" width="2.3" height="8.6"/>
		<rect id="XMLID_63_" x="153.6" y="3.4" class="st1" width="2.3" height="8.6"/>
		<path id="XMLID_60_" class="st1" d="M158.7,8.9c0,0.6,0.1,1,0.3,1.2c0.2,0.3,0.5,0.4,0.8,0.4c0.3,0,0.6-0.1,0.8-0.4
			c0.2-0.3,0.3-0.7,0.3-1.3c0-0.5-0.1-0.9-0.3-1.2c-0.2-0.3-0.5-0.4-0.8-0.4c-0.3,0-0.6,0.1-0.8,0.4C158.8,8,158.7,8.4,158.7,8.9
			 M156.4,8.9c0-1,0.3-1.7,0.9-2.3c0.6-0.6,1.4-0.9,2.5-0.9c1.2,0,2.1,0.4,2.7,1.1c0.5,0.6,0.7,1.3,0.7,2.2c0,1-0.3,1.7-0.9,2.4
			c-0.6,0.6-1.4,0.9-2.5,0.9c-1,0-1.7-0.3-2.3-0.8C156.8,10.8,156.4,9.9,156.4,8.9"/>
		<path id="XMLID_59_" class="st1" d="M163.7,5.8h2.1v1c0.3-0.4,0.6-0.7,1-0.9c0.3-0.2,0.7-0.3,1.2-0.3c0.6,0,1.1,0.2,1.5,0.6
			c0.4,0.4,0.5,1,0.5,1.8v4h-2.3V8.6c0-0.4-0.1-0.7-0.2-0.8c-0.1-0.2-0.3-0.2-0.6-0.2c-0.3,0-0.5,0.1-0.7,0.3
			c-0.2,0.2-0.3,0.6-0.3,1.2v3h-2.3V5.8z"/>
		<path id="XMLID_56_" class="st1" d="M170.7,3.4h2.3v1.6h-2.3V3.4z M170.7,5.8h2.3v6c0,0.8-0.1,1.3-0.2,1.6
			c-0.1,0.3-0.3,0.6-0.6,0.8c-0.3,0.2-0.7,0.3-1.2,0.3c-0.4,0-1-0.1-1.6-0.2l0.3-1.7c0.2,0,0.3,0.1,0.4,0.1c0.2,0,0.3-0.1,0.4-0.2
			c0.1-0.1,0.2-0.4,0.2-0.8V5.8z"/>
		<path id="XMLID_53_" class="st1" d="M173.9,5.8h2.3V12h-2.3V5.8z M173.9,3.4h2.3V5h-2.3V3.4z"/>
	</g>
	<g id="XMLID_92_">
		<path id="XMLID_50_" class="st2" d="M62.7,18.4c-1-0.3-2.4-0.5-4-0.5H55v18h2.9v-2.9c0-0.4,0-0.6,0-1c0-0.2,0-0.4,0-0.7v-3.5h1.5
			c2,0,3.3-0.1,4.1-0.5c0.8-0.4,1.4-1,1.9-1.7c0.4-0.8,0.6-1.6,0.6-2.6c0-1.1-0.3-2.1-0.9-2.9C64.4,19.2,63.5,18.6,62.7,18.4
			 M62.9,23c0,0.9-0.2,1.6-0.5,2.2c-0.3,0.5-0.7,0.9-1.3,1.1c-0.6,0.2-1.4,0.2-2.2,0.2h-0.9v-7.3c0.2,0,0.6,0,1,0
			c1.4,0,2.4,0.3,3.1,0.9C62.6,20.7,62.9,21.7,62.9,23"/>
		<path id="XMLID_47_" class="st2" d="M74.7,17.9l-7.1,18h1.5l2.3-6.4h5.7l2.5,6.4h3.2l-7.3-18H74.7z M71.8,28.3l2.4-6.2l2.5,6.2
			H71.8z"/>
		<path id="XMLID_44_" class="st2" d="M98.4,29.7c-1.1-1.5-2-2.2-2.7-2.6c1.1-0.3,2.1-0.8,2.8-1.6c0.8-0.8,1.3-1.9,1.3-3.1
			c0-1-0.3-1.9-1-2.7c-0.6-0.7-1.4-1.2-2.5-1.5c-0.9-0.3-2.1-0.4-3.9-0.4h-3.9v18h2.9v-8.3h0.4c4.1,0,6.6,6.8,6.9,8l0.1,0.2h2.5
			l-0.2-0.4C99.7,31.6,98.5,29.8,98.4,29.7 M91.5,19.2h0.8c2,0,3.1,0.3,3.6,0.9c0.5,0.7,0.8,1.5,0.8,2.7c0,0.7-0.1,1.2-0.2,1.6
			c-0.1,0.4-0.4,0.8-0.6,1c-0.4,0.4-0.7,0.6-1,0.7l-0.3,0.1c-0.4,0.1-0.8,0.3-1.3,0.3h-1.7V19.2z"/>
		<path id="XMLID_43_" class="st2" d="M120.2,32.2L120,32c-0.1-0.1-0.1-0.1-0.2-0.2c-0.1-0.1-0.2-0.2-0.3-0.3l-6-6.4l2.5-2.4
			l0.4-0.4c0.2-0.2,0.4-0.4,0.5-0.5c0.2-0.2,0.3-0.3,0.5-0.5l3.6-3.5h-1.6l-4.3,4.1H115l-0.1,0.2l-4.4,4.3v-8.5h-3v18h3V28l0.8-0.8
			l4.6,4.8c0.2,0.2,0.3,0.3,0.5,0.5c0.1,0.2,0.3,0.3,0.4,0.4l2.6,2.9h4.1L120.2,32.2L120.2,32.2z"/>
		<path id="XMLID_42_" class="st2" d="M147.9,21.8c-0.1,0.4-0.3,0.9-0.5,1.5l-3.5,8.7l-3.9-9.4h-1.3l-0.1,0.2c0,0-1,2.8-3.6,9.3
			l-4.4-10.7l-1.5-3.5h-3l1,2.5c0.1,0.1,0.2,0.4,0.3,0.7c0.1,0.2,0.1,0.3,0.2,0.5c0.1,0.1,0.1,0.3,0.2,0.4l0.2,0.3l5.6,13.6h1.1
			l3.8-9.6l4,9.6h1.1l7.2-18h-1.4L147.9,21.8z"/>
		<polygon id="XMLID_41_" class="st2" points="156.5,35.8 166.7,35.8 166.7,34.7 159.4,34.7 159.4,27 164.2,27 164.2,25.8 
			159.4,25.8 159.4,19 166.7,19 166.7,17.9 156.5,17.9 		"/>
		<path id="XMLID_40_" class="st2" d="M178.8,26.9c-0.6-0.5-1.6-1.2-2.8-1.9c-1.4-0.9-2.3-1.5-2.7-2.1c-0.5-0.5-0.6-1.1-0.6-1.8
			c0.1-0.6,0.3-1.1,0.8-1.5c0.4-0.4,1.1-0.6,1.9-0.5c0.9,0.1,1.7,0.5,2.3,1.3c0.2,0.2,0.3,0.4,0.4,0.6l0.2,0.3l1-0.8l-0.2-0.2
			c-0.6-0.9-1.2-1.4-1.8-1.7c-0.6-0.3-1.3-0.5-1.9-0.6c-1.3-0.1-2.4,0.2-3.3,0.9c-0.9,0.7-1.5,1.8-1.6,3c-0.1,0.8,0,1.6,0.3,2.4
			c0.3,0.8,0.8,1.4,1.4,2c0.6,0.5,1.5,1.1,2.8,1.9c1.3,0.8,2.2,1.5,2.7,2c0.4,0.6,0.6,1.2,0.5,2c-0.1,0.7-0.4,1.4-1,1.9
			c-0.7,0.6-1.5,0.8-2.5,0.6c-1.6-0.3-2.5-0.9-3.7-2.8l-0.2-0.3l-0.8,0.9l0.1,0.2c0.9,1.6,2.9,2.9,4.6,3.1c0.3,0,0.5,0,0.8,0
			c1.2,0,2.3-0.3,3.2-1c1.1-0.9,1.7-2,1.8-3.5c0.1-1,0-1.8-0.3-2.6C179.9,28,179.4,27.4,178.8,26.9"/>
		<polygon id="XMLID_39_" class="st2" points="183.3,17.9 183.3,19 190.1,19 190.1,35.8 193.1,35.8 193.1,19 200,19 200,17.9 		"/>
	</g>
	<g id="XMLID_93_">
		<path id="XMLID_35_" class="st2" d="M92.6,45.5v-5.8h1.6c0.6,0,1.1,0.1,1.4,0.3c0.3,0.2,0.4,0.5,0.4,0.9c0,0.4-0.1,0.7-0.4,1
			c-0.2,0.3-0.6,0.4-0.9,0.5c0.4,0,0.7,0.1,1,0.3c0.3,0.2,0.5,0.6,0.5,1c0,0.6-0.2,1.1-0.7,1.4c-0.2,0.2-0.5,0.3-0.8,0.3
			c-0.2,0-0.5,0-0.9,0H92.6z M93.3,40v2.2h0.4c0.2,0,0.4,0,0.6,0c0.2,0,0.3-0.1,0.5-0.1c0.4-0.2,0.6-0.5,0.6-1
			c0-0.4-0.1-0.6-0.3-0.8c-0.2-0.2-0.6-0.2-1-0.2H93.3z M93.3,42.6v2.6h0.8c0.4,0,0.7-0.1,1-0.4c0.3-0.2,0.4-0.6,0.4-1
			c0-0.5-0.2-0.8-0.5-1c-0.3-0.2-0.7-0.3-1.2-0.3H93.3z"/>
		<path id="XMLID_32_" class="st2" d="M98.3,40c0,0.1,0,0.2-0.1,0.3c-0.1,0.1-0.2,0.1-0.3,0.1c-0.1,0-0.2,0-0.3-0.1
			c-0.1-0.1-0.1-0.2-0.1-0.3c0-0.1,0-0.2,0.1-0.3c0.1-0.1,0.2-0.1,0.3-0.1c0.1,0,0.2,0,0.3,0.1C98.2,39.8,98.3,39.9,98.3,40
			 M98.2,41.5v4.1l-0.3,0l-0.3,0v-4.1l0.3,0L98.2,41.5z"/>
		<path id="XMLID_31_" class="st2" d="M99.6,45.5v-4.1l0.3,0l0.3,0v0.8c0.1-0.3,0.3-0.5,0.5-0.6c0.2-0.1,0.5-0.2,0.8-0.2
			c0.5,0,0.8,0.1,1,0.4c0.2,0.3,0.3,0.7,0.3,1.3v2.5l-0.3,0l-0.3,0v-2.3c0-0.5-0.1-0.8-0.2-1c-0.1-0.3-0.4-0.4-0.7-0.4
			c-0.4,0-0.7,0.2-0.9,0.5c-0.1,0.3-0.2,0.7-0.2,1.2v2l-0.3,0L99.6,45.5z"/>
		<path id="XMLID_30_" class="st2" d="M104.1,45.5v-4.1l0.3,0l0.3,0v0.8c0.1-0.3,0.3-0.5,0.5-0.6c0.2-0.1,0.5-0.2,0.8-0.2
			c0.5,0,0.8,0.1,1,0.4c0.2,0.3,0.3,0.7,0.3,1.3v2.5l-0.3,0l-0.3,0v-2.3c0-0.5-0.1-0.8-0.2-1c-0.1-0.3-0.4-0.4-0.7-0.4
			c-0.4,0-0.7,0.2-0.9,0.5c-0.1,0.3-0.2,0.7-0.2,1.2v2l-0.3,0L104.1,45.5z"/>
		<path id="XMLID_29_" class="st2" d="M109.9,45.5l-1.6-4l0.4,0l0.4,0c0.1,0.5,0.3,1,0.5,1.5c0.2,0.5,0.4,1.1,0.7,1.7
			c0.2-0.4,0.4-0.9,0.6-1.5c0.2-0.5,0.4-1.1,0.6-1.6l0.3,0l0.3,0c-0.3,0.6-0.6,1.3-0.9,2.1c-0.3,0.8-0.6,1.5-0.9,2.1
			c-0.3,0.8-0.6,1.5-0.8,2l-0.3,0l-0.3,0L109.9,45.5z"/>
		<path id="XMLID_26_" class="st2" d="M113.3,47.7l-0.3,0l-0.3,0v-6.2l0.3,0l0.3,0v0.9c0.2-0.3,0.4-0.6,0.6-0.7
			c0.2-0.1,0.5-0.2,0.8-0.2c0.5,0,0.9,0.2,1.2,0.6c0.3,0.4,0.4,0.8,0.4,1.4c0,0.7-0.2,1.2-0.5,1.6c-0.3,0.4-0.7,0.6-1.3,0.6
			c-0.3,0-0.5-0.1-0.7-0.2c-0.2-0.1-0.4-0.3-0.5-0.6L113.3,47.7z M113.3,43.6c0,0.5,0.1,0.9,0.3,1.2c0.2,0.3,0.5,0.5,0.9,0.5
			c0.4,0,0.7-0.2,0.9-0.6c0.2-0.3,0.3-0.8,0.3-1.3c0-0.5-0.1-0.9-0.2-1.2c-0.2-0.4-0.5-0.5-0.9-0.5c-0.4,0-0.7,0.2-0.9,0.7
			C113.4,42.7,113.3,43.1,113.3,43.6"/>
		<path id="XMLID_23_" class="st2" d="M120.2,44.7l0,0.4c-0.2,0.2-0.4,0.3-0.7,0.4c-0.2,0.1-0.5,0.1-0.7,0.1c-0.6,0-1-0.2-1.4-0.6
			c-0.4-0.4-0.5-0.9-0.5-1.5c0-0.6,0.2-1.1,0.5-1.5c0.3-0.4,0.8-0.6,1.4-0.6c0.5,0,0.9,0.2,1.2,0.5c0.3,0.4,0.5,0.9,0.5,1.6l-1.7,0
			h-1.1c0,0.5,0.1,0.9,0.3,1.2c0.2,0.4,0.6,0.5,1.1,0.5c0.2,0,0.5-0.1,0.7-0.2C119.9,44.9,120.1,44.8,120.2,44.7 M117.6,43.2h2.2
			c0-0.4-0.1-0.8-0.2-1c-0.2-0.3-0.4-0.5-0.8-0.5c-0.4,0-0.7,0.2-0.9,0.5C117.7,42.4,117.6,42.8,117.6,43.2"/>
		<path id="XMLID_22_" class="st2" d="M121.3,40.6l0.7-0.3v1.1h0.9c0,0.1,0,0.1,0,0.2c0,0,0,0.1,0,0.1h-0.9v2.1v0.3
			c0,0.3,0,0.6,0.1,0.7c0.1,0.2,0.3,0.4,0.5,0.4c0.1,0,0.1,0,0.2,0c0.1,0,0.1,0,0.2,0v0.2c-0.1,0.1-0.2,0.1-0.3,0.1
			c-0.1,0-0.2,0-0.3,0c-0.3,0-0.6-0.1-0.7-0.3c-0.2-0.2-0.2-0.6-0.2-1.1v-2.5h-0.5c0,0,0-0.1,0-0.2c0-0.1,0-0.1,0-0.2h0.5V40.6z"/>
		<path id="XMLID_21_" class="st2" d="M123.3,46.9l0.6-1.9c0-0.2,0.1-0.3,0.1-0.3c0.1-0.1,0.2-0.2,0.3-0.2c0.1,0,0.2,0,0.2,0.1
			c0.1,0.1,0.1,0.1,0.1,0.2c0,0.1,0,0.2-0.1,0.2c0,0,0,0.1-0.1,0.2l-1,1.7L123.3,46.9z"/>
		<path id="XMLID_17_" class="st2" d="M128.2,45.5v-5.8h1.6c0.6,0,1.1,0.1,1.4,0.3c0.3,0.2,0.4,0.5,0.4,0.9c0,0.4-0.1,0.7-0.4,1
			c-0.2,0.3-0.5,0.4-0.9,0.5c0.4,0,0.7,0.1,1,0.3c0.3,0.2,0.5,0.6,0.5,1c0,0.6-0.2,1.1-0.7,1.4c-0.2,0.2-0.5,0.3-0.8,0.3
			c-0.2,0-0.5,0-0.9,0H128.2z M128.9,40v2.2h0.4c0.2,0,0.4,0,0.6,0c0.2,0,0.3-0.1,0.5-0.1c0.4-0.2,0.6-0.5,0.6-1
			c0-0.4-0.1-0.6-0.3-0.8c-0.2-0.2-0.6-0.2-1-0.2H128.9z M128.9,42.6v2.6h0.8c0.4,0,0.7-0.1,1-0.4c0.3-0.2,0.4-0.6,0.4-1
			c0-0.5-0.2-0.8-0.5-1c-0.3-0.2-0.7-0.3-1.2-0.3H128.9z"/>
		<path id="XMLID_14_" class="st2" d="M135.9,44.7l0,0.4c-0.2,0.2-0.4,0.3-0.7,0.4c-0.2,0.1-0.5,0.1-0.7,0.1c-0.6,0-1-0.2-1.4-0.6
			c-0.4-0.4-0.5-0.9-0.5-1.5c0-0.6,0.2-1.1,0.5-1.5c0.3-0.4,0.8-0.6,1.4-0.6c0.5,0,0.9,0.2,1.2,0.5c0.3,0.4,0.5,0.9,0.5,1.6l-1.7,0
			h-1.1c0,0.5,0.1,0.9,0.3,1.2c0.2,0.4,0.6,0.5,1.1,0.5c0.3,0,0.5-0.1,0.7-0.2C135.6,44.9,135.7,44.8,135.9,44.7 M133.3,43.2h2.2
			c0-0.4-0.1-0.8-0.2-1c-0.2-0.3-0.4-0.5-0.8-0.5c-0.4,0-0.7,0.2-0.9,0.5C133.4,42.4,133.3,42.8,133.3,43.2"/>
		<path id="XMLID_13_" class="st2" d="M137,45.5v-4.1l0.3,0l0.3,0v0.8c0.1-0.3,0.3-0.5,0.6-0.6c0.2-0.1,0.5-0.2,0.8-0.2
			c0.5,0,0.8,0.1,1,0.4c0.2,0.3,0.3,0.7,0.3,1.3v2.5l-0.3,0l-0.3,0v-2.3c0-0.5-0.1-0.8-0.2-1c-0.1-0.3-0.4-0.4-0.7-0.4
			c-0.4,0-0.7,0.2-0.9,0.5c-0.1,0.3-0.2,0.7-0.2,1.2v2l-0.3,0L137,45.5z"/>
		<path id="XMLID_9_" class="st2" d="M144.7,41.5v0.3l-0.9-0.1c0.2,0.1,0.3,0.3,0.4,0.5c0.1,0.2,0.1,0.4,0.1,0.6
			c0,0.4-0.2,0.8-0.5,1c-0.3,0.2-0.7,0.3-1.2,0.3h-0.1c-0.1,0-0.2,0-0.3,0.1c-0.1,0.1-0.2,0.2-0.2,0.3c0,0.2,0.1,0.3,0.2,0.3
			c0.1,0.1,0.3,0.1,0.6,0.1h0.5c0.5,0,0.8,0.1,1.1,0.3c0.2,0.2,0.3,0.5,0.3,0.8c0,0.5-0.2,0.9-0.6,1.2c-0.4,0.3-0.9,0.5-1.5,0.5
			c-0.4,0-0.7-0.1-1-0.3c-0.3-0.2-0.5-0.5-0.5-1c0-0.3,0.1-0.5,0.2-0.7c0.1-0.2,0.4-0.3,0.6-0.3v-0.1c-0.2,0-0.3-0.1-0.4-0.2
			c-0.1-0.1-0.1-0.3-0.1-0.5c0-0.2,0.1-0.3,0.2-0.5c0.1-0.1,0.2-0.2,0.4-0.3c-0.3-0.1-0.5-0.3-0.6-0.5c-0.1-0.2-0.2-0.5-0.2-0.8
			c0-0.4,0.1-0.8,0.4-1c0.3-0.2,0.7-0.4,1.3-0.4l1.1,0h0.1h0.1h0.2H144.7z M143,45.5c-0.8,0-1.3,0.3-1.3,1c0,0.3,0.1,0.6,0.3,0.8
			c0.2,0.2,0.5,0.3,0.9,0.3c0.3,0,0.6-0.1,0.9-0.2c0.3-0.2,0.4-0.5,0.4-0.8c0-0.3-0.1-0.5-0.2-0.7C143.8,45.5,143.4,45.5,143,45.5
			 M141.9,42.8c0,0.3,0.1,0.6,0.2,0.8c0.2,0.2,0.4,0.3,0.7,0.3c0.3,0,0.5-0.1,0.7-0.3c0.2-0.2,0.2-0.5,0.2-0.8
			c0-0.4-0.1-0.6-0.2-0.8c-0.1-0.2-0.4-0.3-0.7-0.3c-0.3,0-0.5,0.1-0.7,0.3C142,42.2,141.9,42.4,141.9,42.8"/>
		<path id="XMLID_6_" class="st2" d="M148.3,42.8v2v0.2c0,0.1,0.1,0.2,0.2,0.2c0.1,0,0.1,0,0.2,0v0.2c0,0-0.1,0-0.1,0
			c0,0-0.1,0-0.2,0c-0.1,0-0.1,0-0.2,0c-0.2,0-0.3,0-0.4-0.1c-0.1-0.1-0.2-0.2-0.2-0.4l-0.1,0.1c-0.3,0.4-0.7,0.5-1.2,0.5
			c-0.3,0-0.6-0.1-0.8-0.3c-0.2-0.2-0.3-0.4-0.3-0.7c0-0.4,0.2-0.7,0.5-0.9c0.2-0.1,0.5-0.2,1-0.3c0.4-0.1,0.6-0.1,0.7-0.2
			c0.1-0.1,0.2-0.2,0.2-0.4c0-0.3-0.1-0.6-0.2-0.7c-0.2-0.2-0.4-0.3-0.7-0.3c-0.3,0-0.5,0.1-0.7,0.2c-0.2,0.1-0.2,0.2-0.3,0.4h-0.1
			v-0.5c0.2-0.2,0.4-0.3,0.6-0.3c0.2-0.1,0.4-0.1,0.7-0.1C147.9,41.4,148.3,41.9,148.3,42.8 M147.7,44.6v-1.2l-0.3,0.1
			c-0.5,0.1-0.8,0.2-0.9,0.2c-0.3,0.2-0.5,0.4-0.5,0.7c0,0.3,0.1,0.5,0.2,0.6c0.1,0.1,0.3,0.2,0.6,0.2c0.1,0,0.2,0,0.3-0.1
			c0.1-0.1,0.2-0.1,0.3-0.2c0,0,0.1-0.1,0.1-0.1C147.7,44.7,147.7,44.7,147.7,44.6"/>
		<polygon id="XMLID_5_" class="st2" points="149.8,45.5 149.8,39.1 150.2,39.2 150.5,39.1 150.5,45.5 150.2,45.5 		"/>
		<path id="XMLID_4_" class="st2" d="M155.2,41.5v4.1l-0.3,0l-0.3,0v-0.7c-0.3,0.5-0.7,0.8-1.3,0.8c-0.5,0-0.8-0.1-1-0.4
			c-0.2-0.3-0.3-0.7-0.3-1.2v-2.5l0.3,0l0.3,0v2.3c0,0.5,0.1,0.8,0.2,1.1c0.1,0.2,0.4,0.4,0.8,0.4c0.4,0,0.6-0.2,0.8-0.5
			c0.1-0.2,0.2-0.5,0.2-0.9v-2.3l0.3,0L155.2,41.5z"/>
		<path id="XMLID_3_" class="st2" d="M156.5,45.5v-4.1l0.3,0l0.3,0v0.9l0-0.1c0.1-0.2,0.3-0.4,0.5-0.6c0.2-0.2,0.4-0.2,0.6-0.2
			c0.1,0,0.2,0,0.3,0l-0.1,0.7c0,0-0.1,0-0.2-0.1c-0.1,0-0.2-0.1-0.2-0.1c-0.1,0-0.2,0-0.3,0.1c-0.1,0-0.2,0.1-0.2,0.2
			c-0.1,0.2-0.2,0.3-0.2,0.5c0,0.2-0.1,0.4-0.1,0.6v2.2l-0.3,0L156.5,45.5z"/>
		<path id="XMLID_2_" class="st2" d="M162.4,41.5v4.1l-0.3,0l-0.3,0v-0.7c-0.3,0.5-0.7,0.8-1.3,0.8c-0.5,0-0.8-0.1-1-0.4
			c-0.2-0.3-0.3-0.7-0.3-1.2v-2.5l0.3,0l0.3,0v2.3c0,0.5,0.1,0.8,0.2,1.1c0.1,0.2,0.4,0.4,0.8,0.4c0.4,0,0.6-0.2,0.8-0.5
			c0.1-0.2,0.2-0.5,0.2-0.9v-2.3l0.3,0L162.4,41.5z"/>
	</g>
</g>
<g id="XMLID_105_">
	<path id="XMLID_104_" class="st3" d="M0.9,30.3L11,30.8c0,0,5.3-1.6,5.3-2c0.1-0.4-0.1-5.3-0.1-5.3L0.9,30.3z"/>
	<polygon id="XMLID_103_" class="st4" points="0,38 9.6,38 19.5,35.1 22.5,36.7 26.8,35.5 26.8,30.9 40.6,30.3 25.9,24.4 26.1,24 
		38.9,26.7 39.5,22.8 21.9,8.8 21.2,9.1 20.4,8.8 6.6,20.4 3.9,22.7 3.9,26.6 10,23.7 15.8,25.3 18.4,30.8 18,31.3 1.5,35.8 	"/>
	<polygon id="XMLID_102_" class="st5" points="38.8,22.7 31.9,22.9 39.1,26.1 	"/>
	<polygon id="XMLID_101_" class="st5" points="4,22.8 10.7,23 3.7,26.2 	"/>
	<path id="XMLID_100_" class="st6" d="M37.3,23.3c0-0.3-0.1-0.6-0.3-0.7c-0.2-0.2-0.8-0.5-1.1-0.6l-14.7-8.1V8.3
		c6.1,3.3,13.8,7.4,19.1,10.4c1.1,0.5,1.8,1.7,1.9,3.5c0.1,1.8,0.1,4,0,5.7c-0.1,1.1-0.5,1.9-1,2.3c-0.4,0.2-0.9,0.4-2.4-0.2
		l-11.3-4.4c-0.8-0.3-0.7,0.5-0.7,0.8l0,9.1l-4-2.5c-0.4-0.3-0.9-0.6-0.9-1.8v-0.5l0-9.6c0.1-2.4,1.3-2.5,3.5-1.6l11.3,4.9
		c0.4,0.2,0.6-0.2,0.6-0.4C37.4,23.6,37.3,23.6,37.3,23.3"/>
	<path id="XMLID_99_" class="st7" d="M0,32.8l14.4-5.1c0.3-0.1,0.6-0.2,0.9-0.4c0.2-0.1,0.4-0.2,0.4-0.5l0-1c0-0.5-0.2-0.7-0.9-0.4
		L3,30.1c-1.1,0.4-1.8,0.3-2.3,0.2c-0.7-0.2-0.7-1-0.7-2.4c0-1.4,0-3.1,0-4.8c0-0.8,0.1-1.7,0.5-2.4c0.3-0.6,0.9-1.1,1.5-1.5
		c0.4-0.3,0.8-0.5,1.2-0.8l18-10.1l0.1,5.6L5.7,22.7c-0.4,0.2-0.7,0.3-0.7,0.7c0,0.4,0,0.6,0,1c0,0.2,0.1,0.4,0.6,0.2L17,19.4
		c1-0.4,3.7-1,3.6,2.6l0,6.8c-0.1,1,0.2,2.7-2.2,3.6L0,38L0,32.8z"/>
	<path id="XMLID_108_" class="st7" d="M43.1,17.1h0.3c0.1,0,0.2,0,0.3-0.1c0.1,0,0.1-0.1,0.1-0.2c0,0,0-0.1,0-0.1
		c0,0-0.1-0.1-0.1-0.1c0,0-0.1,0-0.2,0h-0.3V17.1z M42.9,17.9v-1.5h0.5c0.2,0,0.3,0,0.4,0c0.1,0,0.1,0.1,0.2,0.1
		c0,0.1,0.1,0.1,0.1,0.2c0,0.1,0,0.2-0.1,0.3c-0.1,0.1-0.2,0.1-0.3,0.1c0.1,0,0.1,0,0.1,0.1c0.1,0.1,0.1,0.2,0.2,0.3l0.2,0.3h-0.3
		l-0.1-0.2c-0.1-0.2-0.2-0.3-0.3-0.3c0,0-0.1-0.1-0.2-0.1h-0.1v0.6H42.9z M43.5,16c-0.2,0-0.4,0.1-0.6,0.2c-0.2,0.1-0.3,0.2-0.4,0.4
		c-0.1,0.2-0.2,0.4-0.2,0.6c0,0.2,0.1,0.4,0.2,0.6c0.1,0.2,0.2,0.3,0.4,0.4c0.2,0.1,0.4,0.2,0.6,0.2c0.2,0,0.4-0.1,0.6-0.2
		c0.2-0.1,0.3-0.2,0.4-0.4c0.1-0.2,0.2-0.4,0.2-0.6c0-0.2,0-0.4-0.2-0.6c-0.1-0.2-0.3-0.3-0.4-0.4C43.9,16,43.7,16,43.5,16
		 M43.5,15.7c0.2,0,0.5,0.1,0.7,0.2c0.2,0.1,0.4,0.3,0.5,0.5c0.1,0.2,0.2,0.5,0.2,0.7c0,0.2-0.1,0.5-0.2,0.7
		c-0.1,0.2-0.3,0.4-0.5,0.5c-0.2,0.1-0.5,0.2-0.7,0.2c-0.2,0-0.5-0.1-0.7-0.2c-0.2-0.1-0.4-0.3-0.5-0.5c-0.1-0.2-0.2-0.5-0.2-0.7
		c0-0.2,0.1-0.5,0.2-0.7c0.1-0.2,0.3-0.4,0.5-0.5C43,15.8,43.2,15.7,43.5,15.7"/>
</g>
<rect id="XMLID_106_" x="49" y="4.6" width="0.4" height="40.8"/>
</svg>
